<svg xmlns="http://www.w3.org/2000/svg" width="600" height="340" viewBox="0 0 600 340">
  <rect width="600" height="340" fill="#f5f5f5"/>
  <!-- セクション見出し -->
  <text x="300" y="35" font-family="sans-serif" font-size="18" font-weight="bold" fill="#333" text-anchor="middle">XXXXXXX XXXXX</text>
  <!-- カード1 -->
  <rect x="20" y="60" width="176" height="260" rx="8" fill="#fff" stroke="#ddd" stroke-width="1"/>
  <rect x="36" y="76" width="144" height="90" rx="4" fill="#e0e0e0"/>
  <line x1="36" y1="76" x2="180" y2="166" stroke="#d0d0d0" stroke-width="1"/>
  <line x1="180" y1="76" x2="36" y2="166" stroke="#d0d0d0" stroke-width="1"/>
  <text x="36" y="190" font-family="sans-serif" font-size="13" font-weight="bold" fill="#333">XXXXXX</text>
  <text x="36" y="212" font-family="sans-serif" font-size="10" fill="#888">XXXXXXXX XXXXX</text>
  <text x="36" y="228" font-family="sans-serif" font-size="10" fill="#888">XXXXXXXXX XXXX</text>
  <rect x="36" y="248" width="80" height="28" rx="4" fill="#888"/>
  <text x="76" y="267" font-family="sans-serif" font-size="10" fill="#fff" text-anchor="middle">XXXX</text>
  <!-- カード2 -->
  <rect x="212" y="60" width="176" height="260" rx="8" fill="#fff" stroke="#ddd" stroke-width="1"/>
  <rect x="228" y="76" width="144" height="90" rx="4" fill="#e0e0e0"/>
  <line x1="228" y1="76" x2="372" y2="166" stroke="#d0d0d0" stroke-width="1"/>
  <line x1="372" y1="76" x2="228" y2="166" stroke="#d0d0d0" stroke-width="1"/>
  <text x="228" y="190" font-family="sans-serif" font-size="13" font-weight="bold" fill="#333">XXXXXX</text>
  <text x="228" y="212" font-family="sans-serif" font-size="10" fill="#888">XXXXXXXX XXXXX</text>
  <text x="228" y="228" font-family="sans-serif" font-size="10" fill="#888">XXXXXXXXX XXXX</text>
  <rect x="228" y="248" width="80" height="28" rx="4" fill="#888"/>
  <text x="268" y="267" font-family="sans-serif" font-size="10" fill="#fff" text-anchor="middle">XXXX</text>
  <!-- カード3 -->
  <rect x="404" y="60" width="176" height="260" rx="8" fill="#fff" stroke="#ddd" stroke-width="1"/>
  <rect x="420" y="76" width="144" height="90" rx="4" fill="#e0e0e0"/>
  <line x1="420" y1="76" x2="564" y2="166" stroke="#d0d0d0" stroke-width="1"/>
  <line x1="564" y1="76" x2="420" y2="166" stroke="#d0d0d0" stroke-width="1"/>
  <text x="420" y="190" font-family="sans-serif" font-size="13" font-weight="bold" fill="#333">XXXXXX</text>
  <text x="420" y="212" font-family="sans-serif" font-size="10" fill="#888">XXXXXXXX XXXXX</text>
  <text x="420" y="228" font-family="sans-serif" font-size="10" fill="#888">XXXXXXXXX XXXX</text>
  <rect x="420" y="248" width="80" height="28" rx="4" fill="#888"/>
  <text x="460" y="267" font-family="sans-serif" font-size="10" fill="#fff" text-anchor="middle">XXXX</text>
</svg>
