<?xml version="1.0" encoding="UTF-8"?>
<svg xmlns="http://www.w3.org/2000/svg" version="1.1" viewBox="140 230 560 140">
  <defs>
    <style>
      .cls-1 {
        fill: #bf0008;
      }

      .cls-2 {
        stroke-width: .9px;
      }

      .cls-2, .cls-3 {
        fill: #231815;
        stroke: #231815;
        stroke-miterlimit: 10;
      }

      .cls-3 {
        stroke-width: 1.5px;
      }
    </style>
  </defs>
  <!-- Generator: Adobe Illustrator 28.7.7, SVG Export Plug-In . SVG Version: 1.2.0 Build 194)  -->
  <g>
    <g id="_レイヤー_1" data-name="レイヤー_1">
      <g>
        <g>
          <path class="cls-2" d="M276.8,268.1c-.7,0-1.2,0-1.5,0-2,0-3.4.4-4.3,1.2-.9.8-1.4,1.5-1.6,2.1,0,.2-.2.3-.4.3s-.2,0-.3-.1c0-1.1.2-2.5.5-4.3.4,0,.7,0,.8,0,.7,0,1.7,0,2.9.1,1.3,0,3.3.1,6,.1s4.5,0,5.4,0c.8,0,1.8-.1,3.1-.1.1.6.2,1.3.2,2,0,.8.1,1.3.2,1.7,0,0,0,.1,0,.2,0,.2,0,.3-.3.3s-.2,0-.3-.1-.3-.3-.5-.8c-.5-.7-1-1.3-1.5-1.6-.5-.4-1.1-.6-1.7-.7-.6-.1-1.9-.2-3.8-.2-.1,1.3-.2,2.9-.2,4.6,0,5.7.1,9.1.4,10.1.3,1,1.2,1.5,2.7,1.5s.6,0,.6.2-.2.3-.5.3h-8.5c-.2,0-.3,0-.3-.3s.2-.3.6-.3c.7,0,1.3-.2,1.8-.6s.7-.9.8-1.6c0-.7.1-2.6.1-5.8s0-5.5-.3-8.1Z"/>
          <path class="cls-2" d="M311.5,275.7v-3.7c.1-1.6,0-2.7-.4-3.2-.3-.5-.9-.8-1.7-.8s-.7,0-.7-.3.1-.3.4-.3h4c0,.1,3.4,0,3.4,0,.3,0,.4,0,.4.2s0,.2-.3.2c-.7,0-1.2,0-1.6.3-.4.2-.6.5-.8,1-.1.5-.2,1.8-.3,4,0,2.2-.1,3.8-.1,4.8v3.3c0,1,0,1.7.3,2,.2.3.5.5.9.7.4.2.8.3,1.2.3.3,0,.4.1.4.3s-.1.2-.4.2h-4.3c0-.1-2.8,0-2.8,0-.3,0-.5,0-.5-.2s.1-.2.3-.2c.7,0,1.2-.1,1.4-.3.2-.1.4-.4.5-.8.1-.4.2-1.1.2-2v-4.8c-.7,0-1.5,0-2.3,0-3.6,0-5.8,0-6.8.2,0,1.7-.1,3.1-.1,4.2s0,2,0,2.3c0,.3.2.5.5.8.3.2.7.4,1.2.5.3,0,.5.2.5.3s-.1.2-.3.2-.2,0-.3,0c-.5,0-1.5,0-3.1,0s-2.7,0-3.1.1c0,0-.2,0-.2,0-.2,0-.3,0-.3-.2s.1-.3.4-.3c.7,0,1.2-.3,1.5-.6.3-.3.5-1.4.6-3.4.1-2,.2-4.3.2-7.1s-.1-3.7-.3-4.3c-.2-.6-.8-.9-1.6-1-.2,0-.3,0-.3-.2,0-.2.2-.3.6-.3h5.6c.4,0,.6,0,.7,0,0,0,.1,0,.1.2s-.1.2-.4.2c-.9,0-1.5.2-1.7.5-.2.2-.3,1.7-.3,4.3s0,1.2,0,2.9c.9,0,2,.1,3.3.1s3.6,0,5.9-.1Z"/>
          <path class="cls-2" d="M341.5,267.6c.3,1,.5,2.4.8,4.2,0,0,0,.1-.1.1s-.1,0-.2-.1c-.6-1-1.2-1.7-1.8-2.3-.6-.5-1.2-.9-1.7-1.1-.6-.2-1.6-.3-3-.3s-2.4,0-3.2.2c0,0-.1.3-.1.5s0,.2,0,.3c0,.7-.1,2.6-.1,5.8s0,.3,0,.6c.7,0,1.2,0,1.4,0,1.2,0,2-.2,2.5-.5.5-.3,1-1.1,1.4-2.2,0-.2.2-.3.3-.3.2,0,.3.1.3.4v.5c-.1.7-.2,1.4-.2,2.2,0,1.2,0,2.3,0,3.3,0,.3,0,.5-.3.5s-.2-.1-.3-.3c-.2-1-.6-1.8-1.2-2.3-.6-.5-2-.7-4-.7,0,.6,0,1.7,0,3.1s0,3.1.2,3.6c.1.5.5.9,1,1.2.5.3,1.4.4,2.7.4,3.6,0,5.9-1.2,6.9-3.6.1-.3.3-.4.4-.4s.2,0,.2.3,0,.2,0,.3c0,.2-.2.8-.4,1.9,0,.2-.2.9-.5,2.1h-5.8c-.8,0-2,0-3.6-.1-1.6,0-3-.1-4.3-.1-1.2,0-1.9,0-1.9,0,0,0,0,0,0-.1,0-.2.2-.3.5-.3,1,0,1.7-.3,2-.8.3-.5.5-1.8.5-3.8v-2.7s0-2.6,0-2.6c0-.5,0-1.5,0-2.9,0-1.4-.1-2.3-.2-2.5,0-.2-.2-.4-.4-.6-.2-.2-.7-.4-1.6-.6-.2,0-.4-.2-.4-.3s.2-.2.5-.2h2.8c1,.2,3.4.2,7.3.2s3.9,0,3.9,0Z"/>
          <path class="cls-2" d="M363.8,276c0-1.2.4-2.5,1.1-3.9.8-1.4,1.9-2.6,3.3-3.5s3.1-1.4,4.9-1.4,4.7.9,6.3,2.6c1.7,1.8,2.5,3.8,2.5,6s-.9,4.5-2.8,6.5c-1.8,1.9-4.1,2.9-6.6,2.9s-4.6-.8-6.2-2.5c-1.7-1.7-2.5-3.9-2.5-6.6ZM366.9,275.6c0,1.4.2,2.9.7,4.5.5,1.5,1.2,2.6,2.2,3.3,1,.7,2,1,3.2,1,1.8,0,3.3-.9,4.3-2.6,1.1-1.7,1.6-3.7,1.6-5.9s-.6-4.1-1.7-5.7c-1.1-1.6-2.6-2.5-4.4-2.5s-2.5.4-3.4,1.3c-.9.9-1.6,1.9-2,3.1s-.6,2.3-.6,3.4Z"/>
          <path class="cls-2" d="M394.5,267.4h.2c1,0,2.3.1,3.8.1s1.3,0,1.8,0c.3,0,.5,0,.7,0,.3,0,.4,0,.4.3s-.1.3-.4.3c-.7,0-1.2.1-1.6.4-.3.3-.5,1-.6,2.3,0,1.2-.1,2.6-.1,4.1v4.8c0,2-.5,3.4-1.6,4.2-1.1.9-2.2,1.3-3.2,1.3s-1.5-.2-2.1-.6c-.6-.4-.8-.9-.8-1.6s.1-.7.3-1c.2-.2.5-.4.9-.4s.6.1.8.3c.2.2.3.4.3.7s0,.3-.2.5c-.2.3-.2.5-.2.6,0,.2,0,.4.3.5.2.1.4.2.7.2.7,0,1.2-.2,1.6-.6.4-.4.7-1.1.7-2,0-.9.1-2.9.1-5.9s0-5.9-.2-6.7c-.1-.7-.7-1.2-1.9-1.3-.3,0-.4-.1-.4-.3s.1-.3.3-.3Z"/>
          <path class="cls-2" d="M411.4,267.4h6.9c.4,0,.6,0,.6.2s-.1.3-.4.3c-.7,0-1.1.2-1.4.5-.3.3-.5.8-.7,1.5-.2.7-.2,2.3-.2,4.6s0,4.8.3,5.9c.2,1.1.7,2,1.6,2.6.9.6,2.1,1,3.7,1s2.9-.3,3.7-.9c.8-.6,1.4-1.5,1.6-2.6.3-1.2.4-3.7.4-7.6s-.2-3.3-.6-4c-.4-.6-1.1-.9-1.9-.9s-.5,0-.5-.3.2-.3.7-.3h5.5c.2,0,.4,0,.4.3s-.1.2-.3.2c-.7,0-1.2.3-1.5.6s-.5.9-.6,1.8c-.1.9-.2,2.1-.2,3.8s0,3.9-.2,5.3c-.2,1.5-.5,2.5-1,3.3-.5.7-1.3,1.3-2.4,1.7-1.1.4-2.4.7-4,.7s-3-.2-4.1-.7c-1.1-.5-1.9-1.1-2.3-2-.4-.8-.6-2-.6-3.6v-3.7c0-3.3,0-5.3-.4-6-.3-.7-.9-1.1-1.9-1.1-.3,0-.5,0-.5-.2s.2-.3.6-.3Z"/>
        </g>
        <g>
          <path class="cls-3" d="M280.4,305c-1,0-1.8,0-2.2,0-2.9,0-5,.6-6.3,1.7-1.3,1.2-2.1,2.2-2.3,3.1,0,.3-.2.5-.5.5s-.3,0-.4-.2c0-1.5.3-3.6.8-6.2.6,0,1,0,1.2,0,1,0,2.4,0,4.2.2,1.9,0,4.8.2,8.7.2s6.6,0,7.8-.1c1.1-.1,2.6-.2,4.5-.2.2.9.3,1.9.3,2.9,0,1.1.2,1.9.2,2.4,0,0,0,.2,0,.3,0,.3-.1.5-.4.5s-.3,0-.4-.2-.4-.5-.8-1.1c-.7-1-1.4-1.8-2.2-2.4s-1.6-.9-2.5-1c-.9-.2-2.8-.3-5.6-.3-.2,1.9-.2,4.2-.2,6.7,0,8.3.2,13.1.5,14.6.4,1.5,1.7,2.2,3.9,2.2s.8.1.8.3-.3.4-.8.4h-12.3c-.3,0-.5-.1-.5-.4s.3-.4.9-.4c1.1,0,1.9-.3,2.6-.9.6-.6,1-1.3,1.1-2.3,0-1,.2-3.8.2-8.5s-.1-7.9-.4-11.8Z"/>
          <path class="cls-3" d="M323.6,303.4h.9c1.5,3,3.5,8,6.2,15.1,1.7,4.6,2.8,7.4,3.5,8.4.6,1,1.6,1.6,3,1.7.4,0,.7.2.7.4s-.1.3-.3.3h-.3c-1.2-.1-2.8-.2-4.7-.2-2.9,0-4.8,0-5.6.1-.4,0-.6-.1-.6-.3s.2-.3.5-.3c1.1,0,1.9-.3,2.4-.6.4-.3.6-.7.6-1.3s-.4-1.9-1.2-4.2l-1.2-3.3c-.7,0-3.8,0-9.3.1-1.4,3.6-2.1,5.8-2.1,6.8s.3,1.4,1,1.8c.7.4,1.4.6,2,.6.5,0,.7.2.7.4s0,.2-.2.3c-2.1,0-3.4-.1-3.9-.1-2.2,0-3.8,0-4.5,0-.4,0-.6-.1-.6-.3s.2-.3.6-.4c1.5-.2,2.7-1.2,3.5-3,.8-1.8,2.1-5.1,3.8-9.8,1.6-4.3,3.3-8.4,5.2-12.3ZM322.8,307.6c-1.2,2.4-2.7,6-4.4,10.7,1.4,0,2.4,0,3,0h5.6c-.5-1.2-1.2-3-2.1-5.2-1.1-2.6-1.8-4.4-2.2-5.3Z"/>
          <path class="cls-3" d="M361.3,303.9c1.3,2.8,2.6,5.3,3.8,7.5,1.4,2.6,2.5,4.7,3.3,6.5.8,1.7,1.7,3.4,2.7,5.1,2.8-4.4,6-10.8,9.6-19h8c.3,0,.4.2.4.4s-.2.3-.5.3c-1.4.1-2.4.4-2.8.8-.5.4-.8,1.2-.9,2.2-.1,1-.2,2.9-.3,5.7-.1,2.8-.2,5.1-.2,6.9,0,3.5,0,5.6,0,6.2,0,.6.3,1.1.7,1.4.4.3,1.2.6,2.3.8.3,0,.5.2.5.4s-.2.3-.6.3h-7.8s-2,0-2,0c-.5,0-.7-.1-.7-.3s.2-.3.5-.3c1.1-.1,1.9-.3,2.2-.6.4-.3.6-.7.8-1.4.2-.7.3-2.3.3-5l.4-9.3.2-4.6c0-.3,0-.5-.2-.5-.2,0-.3.1-.4.3l-4,7.6c-2.5,4.8-4.1,7.9-4.7,9.3l-1.2,2.9c-.4.9-.6,1.4-.7,1.5s-.2.1-.3.1c-.2,0-.3-.2-.4-.5-.2-.8-1.5-3.3-3.7-7.6-1.2-2.4-2.6-5.2-4.2-8.3-1.6-3.1-2.5-4.7-2.6-4.8s-.2-.2-.3-.2c-.1,0-.2.2-.2.5l-.2,11.7v3.9c0,2.1.2,3.4.8,4,.6.6,1.4.9,2.5.9s1,.1,1,.4-.2.3-.5.3h-.4s-1.3,0-1.3,0h-2.8c-1.2,0-2.8,0-4.7.2-.2-.1-.2-.2-.2-.3,0-.3.2-.4.7-.4,1.3,0,2.3-.5,2.9-1.3.6-.8.9-2.6.9-5.5v-3.4s.2-8.6.2-8.6c0-2-.3-3.4-.9-4.1-.6-.7-1.5-1.2-2.7-1.3-.5,0-.8-.2-.8-.4s.2-.3.6-.3.4,0,.7,0l7.1.2Z"/>
          <path class="cls-3" d="M416.1,303.4h.9c1.5,3,3.5,8,6.2,15.1,1.7,4.6,2.8,7.4,3.5,8.4.6,1,1.6,1.6,3,1.7.4,0,.7.2.7.4s-.1.3-.3.3h-.3c-1.2-.1-2.8-.2-4.7-.2-2.9,0-4.8,0-5.6.1-.4,0-.6-.1-.6-.3s.2-.3.5-.3c1.1,0,1.9-.3,2.4-.6.4-.3.6-.7.6-1.3s-.4-1.9-1.2-4.2l-1.2-3.3c-.7,0-3.8,0-9.3.1-1.4,3.6-2.1,5.8-2.1,6.8s.3,1.4,1,1.8c.7.4,1.4.6,2,.6.5,0,.7.2.7.4s0,.2-.2.3c-2.1,0-3.4-.1-3.9-.1-2.2,0-3.8,0-4.5,0-.4,0-.6-.1-.6-.3s.2-.3.6-.4c1.5-.2,2.7-1.2,3.5-3,.8-1.8,2.1-5.1,3.8-9.8,1.6-4.3,3.3-8.4,5.2-12.3ZM415.3,307.6c-1.2,2.4-2.7,6-4.4,10.7,1.4,0,2.4,0,3,0h5.6c-.5-1.2-1.2-3-2.1-5.2-1.1-2.6-1.8-4.4-2.2-5.3Z"/>
          <path class="cls-3" d="M456.8,305c-1,0-1.8,0-2.2,0-2.9,0-5,.6-6.3,1.7-1.3,1.2-2.1,2.2-2.3,3.1,0,.3-.2.5-.5.5s-.3,0-.4-.2c0-1.5.3-3.6.8-6.2.6,0,1,0,1.2,0,1,0,2.4,0,4.2.2,1.9,0,4.8.2,8.7.2s6.6,0,7.8-.1c1.1-.1,2.6-.2,4.5-.2.2.9.3,1.9.3,2.9,0,1.1.2,1.9.2,2.4,0,0,0,.2,0,.3,0,.3-.1.5-.4.5s-.3,0-.4-.2-.4-.5-.8-1.1c-.7-1-1.4-1.8-2.2-2.4s-1.6-.9-2.5-1c-.9-.2-2.8-.3-5.6-.3-.2,1.9-.2,4.2-.2,6.7,0,8.3.2,13.1.5,14.6.4,1.5,1.7,2.2,3.9,2.2s.8.1.8.3-.3.4-.8.4h-12.3c-.3,0-.5-.1-.5-.4s.3-.4.9-.4c1.1,0,1.9-.3,2.6-.9s1-1.3,1.1-2.3c0-1,.2-3.8.2-8.5s-.1-7.9-.4-11.8Z"/>
          <path class="cls-3" d="M509.7,304.1c.4,1.4.8,3.5,1.1,6.1,0,.1-.1.2-.2.2s-.2,0-.3-.2c-.9-1.4-1.8-2.5-2.6-3.3-.8-.7-1.7-1.3-2.5-1.6-.8-.3-2.3-.5-4.4-.5s-3.5.1-4.6.3c-.1.1-.2.4-.2.7s0,.3,0,.5c-.1,1-.2,3.8-.2,8.4s0,.5,0,.8c1,0,1.7,0,2.1,0,1.7,0,2.9-.2,3.7-.7.8-.5,1.4-1.5,2-3.1,0-.3.2-.4.4-.4.3,0,.4.2.4.6v.8c-.2,1-.2,2.1-.2,3.2,0,1.8,0,3.3.1,4.7,0,.4-.1.7-.4.7s-.3-.2-.4-.5c-.3-1.5-.9-2.6-1.8-3.3-.9-.7-2.8-1-5.8-1,0,.9,0,2.5,0,4.6s0,4.4.3,5.2c.2.7.7,1.3,1.4,1.7.8.4,2.1.6,3.9.6,5.2,0,8.5-1.7,10.1-5.2.2-.4.4-.6.6-.6s.3.1.3.4,0,.3-.1.5c0,.2-.3,1.2-.6,2.7,0,.3-.3,1.3-.8,3h-8.4c-1.2,0-3,0-5.3-.2-2.3,0-4.4-.1-6.2-.2-1.8,0-2.7,0-2.8-.1s-.1-.1-.1-.2c0-.3.2-.4.7-.4,1.5,0,2.5-.4,2.9-1.1.5-.8.7-2.6.7-5.5v-4s0-3.7,0-3.7c0-.7,0-2.2-.1-4.2,0-2.1-.2-3.3-.2-3.6,0-.3-.3-.6-.6-.9-.3-.3-1.1-.6-2.3-.9-.3,0-.5-.2-.5-.4s.2-.3.7-.3l4.1.2c1.4,0,5,0,10.6,0s5.6,0,5.7,0Z"/>
          <path class="cls-3" d="M542.9,315.5c2.5.6,4.3,1.5,5.6,2.6,1.2,1.1,1.8,2.5,1.8,4.1s-.8,3.3-2.3,4.8c-1.5,1.5-3.8,2.2-6.8,2.2s-1.5,0-2.7,0c-.8,0-1.2,0-1.3,0-4.1,0-6.9,0-8.3.1-.5,0-.7-.1-.7-.4s0-.2.2-.3c.1,0,.7-.2,1.5-.3.5,0,1-.3,1.3-.7.3-.3.5-1.1.7-2.1.2-1.1.2-2.7.2-4.8s0-3.8,0-5.1c0-1.3,0-2.3,0-2.9,0-2.1,0-3.8-.2-5.1-.2-1.3-.4-2.1-.7-2.5-.3-.4-.9-.6-1.9-.7-.4,0-.6-.2-.6-.4s.2-.3.6-.3h3.6c1.2,0,2.3,0,3.3,0,2.3-.1,3.8-.2,4.5-.2,2.5,0,4.4.5,5.9,1.6,1.4,1,2.2,2.5,2.2,4.3s-.5,2.6-1.4,3.7c-.9,1-2.5,1.9-4.8,2.5ZM536.1,316.4c-.2.3-.3.9-.3,1.7v6c-.1,2.1,0,3.3,0,3.5.1.2.5.4,1.2.6.7.2,1.7.2,3.1.2s2.3-.2,3.1-.5c.8-.3,1.5-1,2.2-2s1-2.2,1-3.6c0-2.1-.6-3.6-1.9-4.6-1.3-1-3.2-1.5-5.7-1.5s-1.8,0-2.8.1ZM536.1,304.9c-.1,2.8-.2,5.1-.2,6.9v2.9c0,.4,0,.6.2.7s.4.2.9.2c2.5,0,4.6-.4,6.1-1.3,1.5-.9,2.3-2.4,2.3-4.5s-.6-3.1-1.7-4c-1.1-.9-2.6-1.3-4.3-1.3s-2.1.2-3.4.6Z"/>
          <path class="cls-3" d="M578.4,303.4h.9c1.5,3,3.5,8,6.2,15.1,1.7,4.6,2.8,7.4,3.5,8.4s1.6,1.6,3,1.7c.4,0,.7.2.7.4s-.1.3-.3.3h-.3c-1.2-.1-2.8-.2-4.7-.2-2.9,0-4.8,0-5.6.1-.4,0-.6-.1-.6-.3s.2-.3.5-.3c1.1,0,1.9-.3,2.4-.6.4-.3.6-.7.6-1.3s-.4-1.9-1.2-4.2l-1.2-3.3c-.7,0-3.8,0-9.3.1-1.4,3.6-2.1,5.8-2.1,6.8s.3,1.4,1,1.8c.7.4,1.4.6,2,.6.5,0,.7.2.7.4s0,.2-.2.3c-2.1,0-3.4-.1-3.9-.1-2.2,0-3.8,0-4.5,0-.4,0-.6-.1-.6-.3s.2-.3.6-.4c1.5-.2,2.7-1.2,3.5-3,.8-1.8,2.1-5.1,3.8-9.8,1.6-4.3,3.3-8.4,5.2-12.3ZM577.6,307.6c-1.2,2.4-2.7,6-4.4,10.7,1.4,0,2.4,0,3,0h5.6c-.5-1.2-1.2-3-2.1-5.2-1.1-2.6-1.8-4.4-2.2-5.3Z"/>
          <path class="cls-3" d="M615.4,316.3c1.3-.8,2.3-1.6,3.1-2.4.7-.8,1.9-2,3.5-3.6,1.6-1.7,2.5-2.8,2.9-3.3s.5-.9.5-1.2-.2-.6-.5-.8c-.4-.2-.8-.4-1.3-.5-.5,0-.8-.2-.8-.4s.2-.3.7-.3.2,0,.4,0c.5,0,2,0,4.4,0s2.9,0,3.5,0c.7,0,1,.1,1,.4s-.2.4-.6.4c-1.2.2-2.3.5-3.2,1-.9.5-2.3,1.6-4.3,3.4-1.9,1.8-3.6,3.5-5,5.2,1.5,0,2.8.2,3.9.6,1.1.4,1.9,1.1,2.6,2.2.7,1,1.3,2.8,1.8,5.2.9,4.1,2.5,6.3,4.7,6.4.5,0,.8.2.8.4s-.1.3-.4.3h-1.8c-2.7,0-4.3,0-4.7,0-.7-.8-1.1-1.7-1.3-2.5s-.5-2.2-.8-4.3c-.3-1.8-.8-3.4-1.4-4.9-.7-1.5-1.7-2.3-3.2-2.3s-1.9.3-2.9.9c-1,.6-1.6,1-1.8,1.3-.2.3-.2,2-.2,5.1s0,3.5.2,4.1c.1.5.5.9.9,1.2.5.3,1.1.5,1.9.6.5,0,.7.2.7.4s-.2.3-.5.3h-.2c-.4,0-1.7,0-4.1,0s-4.4,0-4.8,0c-.2,0-.3,0-.4,0-.3,0-.5-.1-.5-.3s.2-.3.6-.4c.7,0,1.2-.3,1.6-.6.4-.3.6-.6.7-1,0-.4.2-1.7.4-3.8.2-2.2.3-4,.3-5.4s0-3.5,0-4.9c0-1.3-.1-2.8-.2-4.3-.1-1.6-.3-2.5-.4-2.8-.1-.3-.4-.6-.6-.7s-.9-.3-1.9-.4c-.3,0-.5-.2-.5-.3,0-.3.3-.4.9-.4h1.6s7.1,0,7.1,0c.4,0,.5.1.5.3s0,.2-.2.3c-.1,0-.5.1-1.1.2-.6,0-1,.2-1.2.2-.2,0-.3.2-.5.5s-.2.7-.2,1.3c0,1.5,0,4.7.2,9.8Z"/>
          <path class="cls-3" d="M649.2,316.4c0-1.7.5-3.7,1.6-5.7,1.1-2.1,2.7-3.8,4.8-5.2,2.1-1.4,4.5-2,7.1-2s6.8,1.3,9.2,3.8c2.4,2.6,3.6,5.5,3.6,8.7s-1.3,6.6-4,9.4c-2.7,2.8-5.9,4.1-9.6,4.1s-6.6-1.2-9-3.6c-2.4-2.4-3.7-5.6-3.7-9.5ZM653.7,315.8c0,2.1.3,4.3,1,6.5.7,2.2,1.7,3.8,3.1,4.8,1.4,1,3,1.5,4.6,1.5,2.6,0,4.7-1.2,6.3-3.7,1.6-2.5,2.4-5.3,2.4-8.6s-.8-5.9-2.4-8.3c-1.6-2.4-3.7-3.6-6.3-3.6s-3.6.6-4.9,1.9c-1.3,1.3-2.3,2.8-2.9,4.6-.6,1.8-.9,3.4-.9,4.9Z"/>
        </g>
      </g>
      <g>
        <path d="M172.7,311.7v-2.2l-6.9,5.3v14.6h80.5v-14.6l-6.9-5.3v2.2c0,1.7-1.4,3.1-3.1,3.1h-60.6c-1.7,0-3.1-1.4-3.1-3.1Z"/>
        <path d="M172.7,287.1v-2.2l-6.9,5.3v14.6h80.5v-14.6l-6.9-5.3v2.2c0,1.7-1.4,3.1-3.1,3.1h-60.6c-1.7,0-3.1-1.4-3.1-3.1Z"/>
        <path d="M246.4,280.3h-80.6v-11.3c2.2,0,3.9-1.7,3.9-3.9h72.8c0,2.2,1.7,3.9,3.9,3.9v11.3Z"/>
      </g>
      <path class="cls-1" d="M232.9,306.9h-11.2c-.8,0-1.5.7-1.5,1.5v10.2c0,.8.7,1.5,1.5,1.5h11.2c.8,0,1.5-.7,1.5-1.5v-10.2c0-.8-.7-1.5-1.5-1.5ZM227.6,313.1h4.4c0,.4,0,1.1,0,1.7h-4.4v-1.7ZM220.7,308.4c0-.6.5-1.1,1.1-1.1h5.4v1.6h-6.4v-.6ZM227.1,315.2v1.9h-1.3v-1.9h1.3ZM225.8,314.8v-1.7h1.3v1.7h-1.3ZM220.7,309.4h6.4v1.3h-6.4v-1.3ZM220.7,311.1h6.4v1.5h-6.4v-1.5ZM220.7,315.2h1.3v2h-1.3v-2ZM223.7,319.7h-1.9c-.6,0-1.1-.5-1.1-1.1v-1h1.7v-2.4h1.3v4.5ZM225.4,314.8h-4.7v-1.7h4.7v1.7ZM227.1,317.5v2.2h-3v-4.5h1.3v2.3h1.7ZM234,318.7c0,.6-.5,1.1-1.1,1.1h-5.4v-1.2h6.4ZM234,318.1h-6.4v-1.3h6.4v1.3ZM234,316.3h-6.4v-1.1h6.4v1.1ZM234,314.8h-1.6c0-.9,0-1.4,0-1.7h1.6v1.7ZM234,312.6h-6.4v-1.5h6.4v1.5ZM234,310.7h-6.4v-1.3h6.4v1.3ZM234,309h-6.4v-1.6h5.4c.6,0,1.1.5,1.1,1.1v.6Z"/>
      <rect class="cls-1" x="203.2" y="265.2" width="5.8" height="64.2"/>
    </g>
  </g>
</svg>