<?xml version="1.0" encoding="UTF-8"?>
<svg xmlns="http://www.w3.org/2000/svg" version="1.1" viewBox="0 0 841.9 595.3">
  <defs>
    <style>
      .cls-1 {
        fill: none;
      }

      .cls-2 {
        fill: #bf0008;
      }

      .cls-3, .cls-4 {
        fill: #231815;
      }

      .cls-4 {
        stroke: #231815;
        stroke-miterlimit: 10;
        stroke-width: .6px;
      }
    </style>
  </defs>
  <!-- Generator: Adobe Illustrator 28.7.7, SVG Export Plug-In . SVG Version: 1.2.0 Build 194)  -->
  <g>
    <g id="_レイヤー_1" data-name="レイヤー_1">
      <g>
        <path class="cls-4" d="M413,351.1c-.4,0-.7,0-.9,0-1.1,0-2,.2-2.5.6-.5.4-.8.8-.9,1.2,0,.1,0,.2-.2.2s-.1,0-.1,0c0-.6.1-1.3.3-2.3.3,0,.4,0,.5,0,.4,0,1,0,1.6,0,.7,0,1.9,0,3.4,0s2.6,0,3.1,0c.4,0,1,0,1.8,0,0,.3.1.7.1,1.1,0,.4,0,.7,0,.9,0,0,0,0,0,.1,0,.1,0,.2-.2.2s-.1,0-.2,0-.1-.2-.3-.4c-.3-.4-.6-.7-.9-.9s-.6-.3-1-.4c-.4,0-1.1,0-2.2-.1,0,.7,0,1.5,0,2.5,0,3.1,0,4.9.2,5.4.1.6.7.8,1.6.8s.3,0,.3.1-.1.1-.3.1h-4.9c-.1,0-.2,0-.2-.1s.1-.1.4-.1c.4,0,.8-.1,1-.3s.4-.5.4-.9c0-.4,0-1.4,0-3.1s0-2.9-.2-4.4Z"/>
        <path class="cls-4" d="M430,350.5h.4c.6,1.1,1.4,3,2.4,5.6.7,1.7,1.1,2.7,1.4,3.1s.6.6,1.2.6c.2,0,.3,0,.3.2s0,0-.1,0h-.1c-.5,0-1.1,0-1.8,0-1.1,0-1.9,0-2.2,0-.2,0-.2,0-.2-.1s0,0,.2-.1c.4,0,.8-.1.9-.2.2-.1.3-.3.3-.5s-.2-.7-.5-1.5l-.5-1.2c-.3,0-1.5,0-3.7,0-.5,1.3-.8,2.2-.8,2.5s.1.5.4.7c.3.1.5.2.8.2.2,0,.3,0,.3.2s0,0,0,.1c-.8,0-1.3,0-1.5,0-.9,0-1.5,0-1.8,0-.2,0-.3,0-.3-.1s0-.1.2-.1c.6,0,1.1-.4,1.4-1.1.3-.7.8-1.9,1.5-3.6.6-1.6,1.3-3.1,2-4.6ZM429.7,352.1c-.5.9-1.1,2.2-1.7,4,.5,0,.9,0,1.2,0h2.2c-.2-.5-.5-1.1-.8-1.9-.4-1-.7-1.6-.9-2Z"/>
        <path class="cls-4" d="M444.9,350.7c.5,1,1,2,1.5,2.8.6,1,1,1.8,1.3,2.4.3.6.7,1.3,1.1,1.9,1.1-1.6,2.4-4,3.8-7.1h3.1c.1,0,.2,0,.2.1s0,.1-.2.1c-.6,0-.9.1-1.1.3-.2.2-.3.4-.3.8s0,1.1-.1,2.1c0,1,0,1.9,0,2.6,0,1.3,0,2.1,0,2.3,0,.2.1.4.3.5.2.1.5.2.9.3.1,0,.2,0,.2.1s0,.1-.2.1h-3.1s-.8,0-.8,0c-.2,0-.3,0-.3-.1s0-.1.2-.1c.4,0,.7-.1.9-.2.1,0,.3-.3.3-.5,0-.2.1-.9.1-1.8v-3.4c.1,0,.2-1.7.2-1.7,0-.1,0-.2,0-.2,0,0-.1,0-.2.1l-1.6,2.8c-1,1.8-1.6,2.9-1.8,3.4l-.5,1.1c-.2.3-.2.5-.3.5s0,0-.1,0c0,0-.1,0-.2-.2,0-.3-.6-1.2-1.5-2.8-.5-.9-1-1.9-1.6-3.1-.6-1.1-1-1.7-1-1.8s0,0-.1,0c0,0,0,0,0,.2v4.3c0,0-.1,1.4-.1,1.4,0,.8.1,1.3.3,1.5.2.2.6.4,1,.4s.4,0,.4.2,0,.1-.2.1h-.2s-.5,0-.5,0h-1.1c-.5,0-1.1,0-1.9,0,0,0,0,0,0-.1,0,0,0-.1.3-.2.5,0,.9-.2,1.2-.5s.4-1,.4-2v-1.3s0-3.2,0-3.2c0-.7-.1-1.3-.4-1.5-.2-.3-.6-.4-1.1-.5-.2,0-.3,0-.3-.1s0-.1.2-.1.2,0,.3,0h2.8Z"/>
        <path class="cls-4" d="M466.5,350.5h.4c.6,1.1,1.4,3,2.4,5.6.7,1.7,1.1,2.7,1.4,3.1s.6.6,1.2.6c.2,0,.3,0,.3.2s0,0-.1,0h-.1c-.5,0-1.1,0-1.8,0-1.1,0-1.9,0-2.2,0-.2,0-.2,0-.2-.1s0,0,.2-.1c.4,0,.8-.1.9-.2.2-.1.3-.3.3-.5s-.2-.7-.5-1.5l-.5-1.2c-.3,0-1.5,0-3.7,0-.5,1.3-.8,2.2-.8,2.5s.1.5.4.7c.3.1.5.2.8.2.2,0,.3,0,.3.2s0,0,0,.1c-.8,0-1.3,0-1.5,0-.9,0-1.5,0-1.8,0-.2,0-.3,0-.3-.1s0-.1.2-.1c.6,0,1.1-.4,1.4-1.1.3-.7.8-1.9,1.5-3.6.6-1.6,1.3-3.1,2-4.6ZM466.1,352.1c-.5.9-1.1,2.2-1.7,4,.5,0,.9,0,1.2,0h2.2c-.2-.5-.5-1.1-.8-1.9-.4-1-.7-1.6-.9-2Z"/>
        <path class="cls-4" d="M482.5,351.1c-.4,0-.7,0-.9,0-1.1,0-2,.2-2.5.6-.5.4-.8.8-.9,1.2,0,.1,0,.2-.2.2s-.1,0-.1,0c0-.6.1-1.3.3-2.3.3,0,.4,0,.5,0,.4,0,1,0,1.6,0,.7,0,1.9,0,3.4,0s2.6,0,3.1,0c.4,0,1,0,1.8,0,0,.3.1.7.1,1.1,0,.4,0,.7,0,.9,0,0,0,0,0,.1,0,.1,0,.2-.2.2s-.1,0-.2,0-.1-.2-.3-.4c-.3-.4-.6-.7-.9-.9s-.6-.3-1-.4c-.4,0-1.1,0-2.2-.1,0,.7,0,1.5,0,2.5,0,3.1,0,4.9.2,5.4.1.6.7.8,1.6.8s.3,0,.3.1-.1.1-.3.1h-4.9c-.1,0-.2,0-.2-.1s.1-.1.4-.1c.4,0,.8-.1,1-.3s.4-.5.4-.9c0-.4,0-1.4,0-3.1s0-2.9-.2-4.4Z"/>
        <path class="cls-4" d="M503.3,350.8c.2.5.3,1.3.4,2.3,0,0,0,0,0,0s0,0-.1,0c-.4-.5-.7-.9-1-1.2-.3-.3-.7-.5-1-.6-.3-.1-.9-.2-1.7-.2s-1.4,0-1.8.1c0,0,0,.1,0,.3s0,0,0,.2c0,.4,0,1.4,0,3.1s0,.2,0,.3c.4,0,.7,0,.8,0,.7,0,1.1,0,1.4-.3.3-.2.6-.6.8-1.2,0-.1,0-.2.2-.2,0,0,.1,0,.1.2v.3c0,.4,0,.8,0,1.2,0,.7,0,1.2,0,1.8,0,.2,0,.2-.1.2s-.1,0-.1-.2c-.1-.6-.3-1-.7-1.2-.4-.2-1.1-.4-2.3-.4,0,.3,0,.9,0,1.7s0,1.6.1,1.9c0,.3.3.5.6.6.3.2.8.2,1.5.2,2,0,3.4-.6,4-1.9,0-.2.1-.2.2-.2s.1,0,.1.2,0,.1,0,.2c0,0-.1.4-.2,1,0,.1-.1.5-.3,1.1h-3.3c-.5,0-1.2,0-2.1,0-.9,0-1.7,0-2.4,0-.7,0-1.1,0-1.1,0s0,0,0,0c0,0,0-.1.3-.1.6,0,1-.1,1.2-.4.2-.3.3-1,.3-2.1v-1.5s0-1.4,0-1.4c0-.3,0-.8,0-1.6,0-.8,0-1.2,0-1.3,0-.1-.1-.2-.2-.3-.1-.1-.4-.2-.9-.3-.1,0-.2,0-.2-.2s0-.1.3-.1h1.6c.6.1,2,.1,4.2.1s2.2,0,2.2,0Z"/>
        <path class="cls-4" d="M516.4,355c1,.2,1.7.6,2.2,1,.5.4.7.9.7,1.5s-.3,1.2-.9,1.8c-.6.5-1.5.8-2.7.8s-.6,0-1.1,0c-.3,0-.5,0-.5,0-1.6,0-2.7,0-3.3,0-.2,0-.3,0-.3-.1s0,0,0-.1c0,0,.3,0,.6-.1.2,0,.4-.1.5-.2.1-.1.2-.4.3-.8,0-.4,0-1,0-1.8s0-1.4,0-1.9c0-.5,0-.8,0-1.1,0-.8,0-1.4,0-1.9,0-.5-.2-.8-.3-.9-.1-.1-.4-.2-.7-.3-.2,0-.2,0-.2-.1s0-.1.2-.1h1.4c.5,0,.9,0,1.3,0,.9,0,1.5,0,1.8,0,1,0,1.7.2,2.3.6.6.4.9.9.9,1.6s-.2,1-.6,1.4-1,.7-1.9.9ZM513.7,355.4c0,.1-.1.3-.1.6v2.2c0,.8,0,1.2,0,1.3,0,0,.2.2.5.2s.7,0,1.2,0,.9,0,1.2-.2c.3-.1.6-.4.9-.7s.4-.8.4-1.3c0-.8-.3-1.3-.8-1.7-.5-.4-1.2-.5-2.2-.5s-.7,0-1.1,0ZM513.7,351.1c0,1,0,1.9,0,2.5v1.1c0,.1,0,.2,0,.3s.2,0,.4,0c1,0,1.8-.2,2.4-.5.6-.3.9-.9.9-1.7s-.2-1.2-.7-1.5c-.4-.3-1-.5-1.7-.5s-.8,0-1.3.2Z"/>
        <path class="cls-4" d="M530.4,350.5h.4c.6,1.1,1.4,3,2.4,5.6.7,1.7,1.1,2.7,1.4,3.1s.6.6,1.2.6c.2,0,.3,0,.3.2s0,0-.1,0h-.1c-.5,0-1.1,0-1.8,0-1.1,0-1.9,0-2.2,0-.2,0-.2,0-.2-.1s0,0,.2-.1c.4,0,.8-.1.9-.2.2-.1.3-.3.3-.5s-.2-.7-.5-1.5l-.5-1.2c-.3,0-1.5,0-3.7,0-.5,1.3-.8,2.2-.8,2.5s.1.5.4.7c.3.1.5.2.8.2.2,0,.3,0,.3.2s0,0,0,.1c-.8,0-1.3,0-1.5,0-.9,0-1.5,0-1.8,0-.2,0-.3,0-.3-.1s0-.1.2-.1c.6,0,1.1-.4,1.4-1.1.3-.7.8-1.9,1.5-3.6.6-1.6,1.3-3.1,2-4.6ZM530.1,352.1c-.5.9-1.1,2.2-1.7,4,.5,0,.9,0,1.2,0h2.2c-.2-.5-.5-1.1-.8-1.9-.4-1-.7-1.6-.9-2Z"/>
        <path class="cls-4" d="M545,355.3c.5-.3.9-.6,1.2-.9.3-.3.8-.7,1.4-1.3.6-.6,1-1,1.1-1.2s.2-.4.2-.4,0-.2-.2-.3c-.1,0-.3-.1-.5-.2-.2,0-.3,0-.3-.2s0-.1.3-.1,0,0,.2,0c.2,0,.8,0,1.8,0s1.1,0,1.4,0c.3,0,.4,0,.4.1s0,.1-.2.1c-.5,0-.9.2-1.3.4s-.9.6-1.7,1.3c-.8.7-1.4,1.3-2,1.9.6,0,1.1,0,1.5.2s.8.4,1,.8c.3.4.5,1,.7,1.9.3,1.5,1,2.3,1.9,2.4.2,0,.3,0,.3.1s0,.1-.1.1h-.7c-1.1,0-1.7,0-1.8,0-.3-.3-.4-.6-.5-.9s-.2-.8-.3-1.6c-.1-.7-.3-1.3-.6-1.8-.3-.6-.7-.8-1.2-.8s-.8.1-1.2.3c-.4.2-.6.4-.7.5,0,.1,0,.7,0,1.9s0,1.3,0,1.5c0,.2.2.3.4.5.2.1.4.2.8.2.2,0,.3,0,.3.2s0,.1-.2.1h0c-.1,0-.7,0-1.6,0s-1.7,0-1.9,0c0,0-.1,0-.2,0-.1,0-.2,0-.2-.1s0-.1.2-.1c.3,0,.5-.1.6-.2.1-.1.2-.2.3-.4,0-.1,0-.6.2-1.4,0-.8,0-1.5,0-2s0-1.3,0-1.8c0-.5,0-1,0-1.6,0-.6,0-.9-.2-1,0-.1-.1-.2-.2-.3s-.4-.1-.7-.2c-.1,0-.2,0-.2-.1,0-.1.1-.2.4-.2h.6s2.8,0,2.8,0c.1,0,.2,0,.2.1s0,0,0,.1c0,0-.2,0-.4,0-.2,0-.4,0-.5,0,0,0-.1,0-.2.2s0,.3,0,.5c0,.5,0,1.7,0,3.6Z"/>
        <path class="cls-4" d="M558.3,355.3c0-.6.2-1.4.6-2.1.4-.8,1.1-1.4,1.9-1.9s1.8-.8,2.8-.8,2.7.5,3.6,1.4,1.4,2,1.4,3.2-.5,2.4-1.6,3.5c-1.1,1-2.3,1.5-3.8,1.5s-2.6-.4-3.6-1.3c-1-.9-1.4-2.1-1.4-3.5ZM560.1,355.1c0,.8.1,1.6.4,2.4s.7,1.4,1.2,1.8c.6.4,1.2.6,1.8.6,1,0,1.9-.5,2.5-1.4.6-.9.9-2,.9-3.2s-.3-2.2-1-3.1c-.6-.9-1.5-1.3-2.5-1.3s-1.4.2-1.9.7c-.5.5-.9,1-1.1,1.7-.2.7-.4,1.3-.4,1.8Z"/>
      </g>
      <g>
        <path class="cls-3" d="M408.6,243.2c.8,0,4.4-2.5,7-4.9.1-.1.1-.1.2-.1h.3c.6,0,.9-.3.9-.6s0-.3-.1-.4c-.4-.5-1.8-1.5-2.1-1.5s-.3.1-.4.3c-.5,1.5-3.8,5.1-5.6,6.3-.5.3-.5.5-.5.6s0,.3.4.3Z"/>
        <path class="cls-3" d="M432.9,237.8c-.2,0-.4,0-1,.8,0,0,0,0-.1,0h-2.5c-.6-.4-2.1-1.1-2.5-1.2h0c0,0-.2-.1-.3-.1h-.3v.3c0,0,0,.2,0,.2.2.9.4,3.4.4,4.1v1.8c0,.1,0,.3,0,.4-.3-.5-1.1-1.2-1.8-1.6h-.1c-.2,0-.4,0-.6.1h-.1c-.2.4-.5.7-.7,1.1,0,0-.1,0-.1,0h-.7c0-1.5,0-2.3.1-2.4,0,0,0,0,.1,0,.3-.1.4-.3.4-.5s0-.1,0-.2h2.3c.7,0,.8-.4.8-.5,0-.7-1.7-1.9-2.2-1.9s-1.1.8-1.3,1.1c0,0-.1.1-.1.1h-2.5c.4-.7.8-1.4,1.2-2.2h0q0-.3.2-.3c.6-.1.9-.4.9-.7,0-.7-2.6-1.4-2.7-1.4-.4,0-.4.3-.4.5,0,.8-.7,3.2-1.9,5.3-.4-.4-1.1-.8-1.5-1-.1,0-.2-.1-.3-.2-.1,0-.2,0-.3,0-.1,0-.3,0-.3.3h0c-.4,1.8-5.5,7.1-7.4,8.4-.4.3-.5.5-.5.6v.3h.3c.3,0,1.8-.6,4.7-3,0,.6,0,1.2,0,1.4,0,2-.3,6.4-.6,9.2v.2c0,.6.4,1.1,1,1.1s1.4-.6,1.4-1.3v-1.1c0-2.7,0-6.7.3-9.1q0-.6.5-.8c.4-.2.7-.4.7-.7,0-.4-.4-.6-1-.7.7-.7,1.4-1.4,1.9-1.9h0q.2-.3.4-.3s0,0,.1,0c-.2.4-.5.7-.7,1-.3.4-.3.5-.3.6s0,0,0,0c0,0,0,0,0,0h-.3s0,.3,0,.3c0,.4.8,1.5,1.4,1.5h0c1.7-.2,2.6-.2,3.4-.2v7.3c-.4.1-.8.2-1.2.3h-.1s0-1.1,0-1.1c0-1.3,0-2.3,0-3.1,0,0,0-.1.2-.2.5-.2.8-.5.8-.8,0-.9-2.8-1-2.9-1-.3,0-.4.2-.4.3s0,.1,0,.2c0,.6.2,1.6.2,2.6,0,.9,0,1.4,0,1.8,0,.6,0,1,0,1.9,0,0-.1,0-.2,0,0,0-.1,0-.2,0-.3,0-.9,0-1.5,0-.2,0-.5,0-.7,0-.3,0-.4.2-.4.3,0,.4,1.3,2.1,1.8,2.1s.3-.1.4-.2c0,0,.1-.1.2-.1,1.4-.5,8.9-3.2,10-4.2,0,1.9,0,3.7-.2,5.3h0c0,.9.6,1.2,1,1.2s.8-.2,1.1-.5c.2-.2.3-.5.3-.8,0-1.5,0-3,0-4.5,0,0,.2,0,.3.2.5.3,1.3.8,1.4,1.1.1.4.3.5.8.5h0c1.4,0,3-.9,3-2.3v-2.5c-.1-1.3-.1-3.9-.1-5.8s0-1.5,0-1.9q0-.5.3-.7c0,0,.2,0,.3-.1.4-.2.7-.5.7-.8,0-.8-2.3-1.7-2.5-1.7ZM428.8,241.4v-.4c0-.9,0-.9.3-1h2.8s0,0,0,0c0,0,0,0,0,0,0,.9,0,4.3,0,7s0,3.2,0,3.9c0,.2,0,.5-.9.5s-1.2-.1-1.8-.2h-.2c0,0-.2,0-.2,0,0-1.2,0-2.5,0-3.7,0-2,0-4,0-6.1ZM420.4,242.7v1.3c-1.2,0-2.4,0-3.8-.3.6-.4,1.6-1.4,2.6-2.9h1.1c0,.5,0,1,0,1.9ZM407.6,248.6v.2s0,0,0,0v-.2s0,0,0,0ZM426.6,250.8c-.1,0-.4,0-.7,0-.9.3-2.1.6-3.5,1v-3.1h3.1c.5,0,.7-.3.7-.6s0-.2,0-.4c-.3-.6-1.2-1.3-1.8-1.5,0,0-.2,0-.2,0-.3,0-.9.7-1.3,1.3,0,0,0,0,0,0h-.4v-2.6h3.5c.4,0,.6-.1.7-.3,0,1.2,0,2.5,0,3.7s0,1.5,0,2.3Z"/>
        <path class="cls-3" d="M465.6,253.8c-.3,0-.7.2-1.9,1.8h0c0,.1-.2.2-.3.2h-6c0-.6,0-1.2,0-1.9h7.4c.8,0,.9-.4.9-.6,0-.6-1.5-1.9-2.4-2.2,0,0,.1-.1.2-.2.2-.2.3-.5.2-.7-.1-1.6-.2-3.2-.2-4.3s0-1.1.4-1.4c.4-.2.8-.4.8-.8,0-.9-2.3-1.8-2.5-1.8s-.3,0-.5.2c-.1,0-.2.2-.4.4s-.2.2-.3.3c0,0-.1,0-.2,0h-3.6c0-.7,0-1.3,0-1.8h10.2c.7,0,.9-.4.9-.6,0-.6-1.7-2.2-2.6-2.5h0c0,0-.2,0-.3,0-.2,0-.6.1-1.9,1.8h0c0,.1-.2.2-.3.2h-5.9s0,0,0,0c0-.1,0-.2,0-.3q0-.9.3-1c.3,0,.5-.3.5-.5,1.4-.1,2.7-.3,3.8-.5h0c.2,0,.4,0,.5.1.2.1.4.1.6.1.4,0,.6-.3.6-.5,0-.7-1.5-2.1-1.5-2.1h0c0-.1-.2-.2-.4-.2s-.2,0-.3.1h-.1c-.3.2-.7.5-1.4.6-3.1.7-9.4,1.6-13.1,1.7-.5,0-.7.2-.7.4,0,.6.8.6,3.3.6s3.7,0,5.6-.2c0,.5,0,1.1,0,1.7h-.5c-1.6,0-7.2-.1-10-.4h-.3s0,.3,0,.3c0,.5,1,1.6,1.7,1.6h0c2.5-.2,6.9-.3,8.5-.3h.7v1.8h-3.1c-.7-.4-2.5-1.1-2.8-1.1s-.4.1-.4.4h0c0,.1,0,.2,0,.2,0,.4.4,2.1.4,4.2s0,2.8-.2,4.9h0c0,.6.4,1,1.1,1s.9-.2,1.2-.5c.2-.2.2-.4.2-.6,0-.2,0-.3,0-.5,0,0,0-.1,0-.2h3.6c0,.8,0,1.5,0,2.3-1.7,0-5.2,0-7.8-.4h-.3s0,.3,0,.3c0,.5,1,1.6,1.7,1.6h0c2.6-.2,5.1-.3,6.4-.3h0c0,.3,0,.7,0,1,0,.3,0,.6,0,.9h-1.4c-1.5,0-6.4,0-9.3-.4h-.3s0,.3,0,.3c0,.5,1,1.6,1.7,1.6h0c2.4-.2,6.1-.3,7.8-.3h14.2c.8,0,.9-.4.9-.6,0-.8-2.2-2.6-3-2.6ZM457.3,246v-2h3.9c0,0,0,0,0,0,0,.5,0,1.2,0,2h-4ZM460.9,252.6c0,0-.2.1-.3.1h-3.3c0-.4,0-.8,0-1.1,0-.4,0-.8,0-1.2h4c0,.5.3.8.8.9-.6.5-1.2,1.2-1.2,1.2ZM457.3,249.3v-2.2h4v2.2h-4ZM451.8,244.1s0,0,.1,0h3.2v2h-3.7c0-1.7,0-1.7.3-1.9ZM455.2,247.1c0,.3,0,.7,0,1,0,.4,0,.7,0,1.1h-3.7c0-.7,0-1.5,0-2.2h3.7ZM462,235.2s0,0,0,0h0s0,0,0,0Z"/>
        <path class="cls-3" d="M501.5,253.8c-.5,0-1.5,1.4-1.7,1.7,0,0-.2.1-.3.1h-4.9v-2.3h5.1c.7,0,.8-.4.8-.6,0-.8-1.6-1.9-2.4-2.2h0c0,0-.1,0-.2,0-.1,0-.4,0-1.6,1.5,0,0-.1.1-.2.1h-1.4v-.4q0-.6.3-.6c0,0,.2,0,.3-.2.2-.1.5-.3.5-.6,0-.6-1.9-.9-2.7-1,1.9-.2,3.7-.5,5.6-.9.3.3.6.6.9.9.4.6.9.7,1.2.7.7,0,1.2-.5,1.2-1.2,0-2.4-5.8-3.6-6.5-3.6s-.4.2-.4.4.2.3.3.4c.7.4,1.5.9,2.1,1.4-2.1.2-3.9.3-5.4.4.5-.7,1.1-1.6,1.4-2.1h0c0-.2.1-.3.2-.3.6-.1.9-.3.9-.6h6.1c.7,0,.8-.3.8-.6,0-.6-1.9-1.9-2.6-1.9s-.6.2-1.5,1.3c0,.1,0,.1-.1.1h-3.6c-1.4,0-5.1-.2-7.1-.4h-.2c0-.6,0-1.1,0-1.7h0c0-.1,12.4-.1,12.4-.1h0c0,.6.4,1,1.1,1s1-.3,1.2-.5c.2-.2.3-.5.3-.7,0-.2,0-.4,0-.6,0-.5-.1-1.1-.1-1.5s0-.4.6-.7c.4-.2.8-.4.8-.8,0-.8-2.3-1.8-2.3-1.9-.2,0-.3,0-.4,0-.3,0-.6.3-1.2.9h0c0,0-.1.1-.2.1h-11.5c-.8-.4-2.7-1.2-3.1-1.2s-.4.2-.4.4,0,.1,0,.3c.3,1.1.5,4.2.5,6.6,0,6.1-1.8,10.4-5.6,13.1-.6.5-.8.6-.8.8s.1.3.4.3.6-.2,1-.4c5.7-2.8,7.1-8.2,7.4-12.8.3.5.9,1.1,1.4,1.1h0c.8,0,2.2-.1,3.4-.2,0,.7-.3,1.6-.8,3-.6,0-1.2,0-1.8,0h0c-.4,0-1.3,0-2-.2h-.2c-.2,0-.3.1-.3.3s0,.1,0,.2c0,0,.8,2.1,1.4,2.1s.3,0,.4-.2c0,0,.2-.1.2-.1h.5c1.2-.2,2.4-.3,3.6-.5,0,0,0,.1,0,.2,0,0,0,.2,0,.2.2.6.3,1.6.3,2.4-2.5,0-4.5-.2-6.1-.4h-.3s0,.3,0,.3c0,.5.9,1.6,1.6,1.6h0c1.7-.2,3.3-.2,4.7-.2,0,.4,0,.8,0,1.2s0,.7,0,1.1h-.3c-1.7,0-6.3-.1-9-.4h-.3s0,.3,0,.3c0,.5.9,1.6,1.6,1.6h0c2.3-.2,5.8-.3,7.5-.3h11.3c.7,0,.8-.4.8-.6,0-.7-2.1-2.4-2.8-2.4ZM499,237.9v2.2h-12.5v-.6c0-1.4,0-1.4.4-1.6h.2c0-.1,11.7-.1,11.7-.1.2,0,.2,0,.2,0Z"/>
      </g>
      <g>
        <g>
          <path class="cls-3" d="M434,306c0,6.3,0,13.2-.1,16.9h-3.6c-4,0-17.2-.2-24.3-1h-.4s0,.3,0,.3c0,.9,2.1,3.6,3.6,3.6h0c6.3-.6,17-.7,20.6-.7h36.3c1.7,0,1.9-.8,1.9-1.2,0-1.1-3.7-4.9-6.4-5.8-.2,0-.4-.1-.7-.1-.4,0-.7.1-.9.3-1.2,1-2.9,3-3.7,4.2-.1.2-.6.4-.9.4h-16.3c0-3.8,0-10.5,0-17s1.1-2.4,2.4-2.4h18.3c1.5,0,1.7-.8,1.7-1.2,0-1.2-3.9-4.7-5.9-5.5-.2,0-.5-.1-.7-.1s-.5,0-.8.3c-.6.5-1.7,1.8-2.7,2.9-.4.4-.7.8-.9,1.1s-.5.4-.8.4h-8.2c-1.3,0-2.4-1.1-2.4-2.4,0-3.9,0-7.1.1-8.2v-.5q.1-3,1.4-3.6c.8-.4,1.2-.8,1.2-1.3s0-.4-.2-.6h22.9c1.6,0,1.8-.9,1.8-1.2,0-1.5-4.8-5.3-6.2-5.8h-.1s0,0-.1,0c0,0-.2,0-.3,0-1.6,0-4.9,4.5-4.9,4.5-.1.2-.5.4-.8.4h-20.7c-3.8,0-17.7-.2-24.7-1h-.4v.4c0,.9,2.2,3.5,3.7,3.5h0c6.6-.5,17.9-.7,21.1-.7h.7c.4,1.7.5,4.1.5,7.1v7c0,1.4-1.1,2.4-2.5,2.4-5.3,0-13.6-.4-18.8-1h-.4s0,.3,0,.3c0,1,2.1,3.6,3.5,3.6h.1s15.6-.6,15.6-.6c1.4,0,2.5,1,2.5,2.4Z"/>
          <path class="cls-3" d="M516.4,296.2c1.3,0,2.4.9,2.5,2.2.2,1.2.3,2.4.4,3.5.1,1.9-1.4,3.4-3.3,3.4h-5c-4.1,0-16.5-.2-23.7-1h-.4v.4c0,1,2.2,3.6,3.6,3.6h0c6.2-.6,16.4-.7,20-.7h5.1c2,0,3.5,1.7,3.2,3.7-1.5,11.3-7.4,13.2-11,13.2s-2.8-.2-4.3-.7c-.7-.2-1.6-.4-2-.4s-.5.4-.5.4c0,.4.4.7,4.7,2.9,1.7.8,3.9,2,4.2,2.3.5.6,1.1.7,1.5.7,3.4,0,11.7-3.4,12.8-18.6.1-1.9,1.8-3.4,3.7-3.4h19.1c1.6,0,1.8-.7,1.8-1.2,0-1.6-5.3-6.2-7.1-6.2s-4.1,3.8-4.6,4.6c-.1.2-.5.4-.9.4h-8.9c-1.7,0-3.1-1.3-3.3-3-.1-1.2-.3-2.4-.5-3.6-.3-1.4.8-2.6,2.1-2.6h19c1.7,0,1.8-.9,1.8-1.2,0-1.1-3.4-4.6-6.1-5.5-.3-.2-.5-.2-.8-.2s-1.1,0-4.3,4h0c-.2.3-.6.5-.9.5h-9.6c-1.5,0-2.8-.9-3.4-2.3-1.3-3.1-3-5.7-4.9-7.5,5.7-.5,11-1.2,15.3-1.9.2,0,.3,0,.4,0,.4,0,.8.1,1.1.2.4.2.9.3,1.4.3,1.1,0,1.2-.7,1.2-1,0-1.4-4-5.2-4.6-5.2s-.3.1-.4.2c0,0,0,0-.2.1-1.3.8-2.6,1.4-3.8,1.7-7.9,2.1-21.1,4.1-31.2,4.9-.5,0-1.4.1-1.4.7s1.5.9,3.5.9c4,0,8.5-.2,13.4-.5,0,.8.5,1.2,1.2,1.2s.4,0,.6,0h.2c0,0,.1,0,.2,0,1.2,0,2.6,2.1,3.8,5.7.4,1.3-.6,2.7-2,2.6l-25.3-.9h-.4s0,.3,0,.3c0,1,2.3,3.6,3.7,3.6h0s22.8-.7,22.8-.7Z"/>
          <path class="cls-3" d="M566.4,296c.9,0,7.4-3.6,14.2-11.5h15.2c1.5,0,1.7-.7,1.7-1,0-1.4-4.2-5.2-5.7-5.2s-3.7,3.6-3.8,3.6c-.1.2-.5.3-.6.3h-5c.4-.5.8-1,1.2-1.5.3-.4.5-.7.8-1.1q.6-.8,1.4-.8c.6,0,2.4-.1,2.4-1.2,0-1.8-6.7-4.1-7.4-4.1s-.5.4-.6.8v.2c-.4,5-9.4,16.2-13.7,19.8-.2.2-.8.7-.8,1.1s.2.5.6.5Z"/>
          <path class="cls-3" d="M608.6,292c.6,1.6,1.7,2.6,3,2.6s3-1.2,3-3.1c0-4.4-7.9-6.1-9.3-6.1s-.6,0-.6.5.2.5.5.9c1.1,1.1,2.5,3,3.3,5.2h0Z"/>
          <path class="cls-3" d="M620,277.8h-.2c-.2-.1-.7,0-1.1.1h0c-.9,1-2.6,3.1-3.4,4-.1.2-.5.3-.5.3h-10.6c.7-.9,1.4-1.9,2-2.7.6-.8.7-.8,1.4-.8,1.1,0,2.4-.2,2.4-1.2,0-1.6-6.4-3.9-7.3-3.9s-.6.5-.6.9c-1,5.3-6.3,13.6-10.2,17.2-.3.2-.7.7-.7,1.1s0,.4.5.4c1,0,5.7-3,10.6-8.9h21.9c1.5,0,1.6-.8,1.6-1.1,0-1.8-4.9-5.2-5.9-5.6Z"/>
          <path class="cls-3" d="M591.1,296.6c-.3,0-.5,0-.8.3-.7.6-1.9,2-2.6,3.1-.1.2-.4.3-.5.3h-.5l.2-2.3c.2-1.4.2-1.4,1-1.7h.3c.9-.5,1.4-1,1.4-1.5s-.2-.6-.5-.8c.9-.5,1.6-1.6,1.6-2.8,0-4.1-7.7-6-8.7-6s-.6,0-.6.5.2.5.5.9c1.5,1.7,2.5,3.5,3,5.1,0,.3.2.7.4,1-1-.2-2.4-.5-3.1-.5s-.5.3-.5.5,0,.2,0,.5c0,0,.4,1.7.5,7.2-2.6,0-8.4-.1-13.5-.9h-.4c0,0,0,.3,0,.3,0,1,2,3.4,3.1,3.4h.1c4.3-.5,8.1-.6,10.8-.6v.9c-3.8,6.4-14,14.6-18.3,16.9-1.2.6-1.3,1-1.3,1.2s0,.5.6.5c1.9,0,12.2-4.1,18.8-11.4-.3,5-.6,10.6-1.2,17.5v.2c0,1.5,1.2,2.1,2.3,2.1s1.7-.2,2.6-1.1c.4-.4.6-.9.6-1.5,0-3.8,0-7.2,0-10.6s0-5.8,0-8.4c1.3.9,2.8,2.4,4.5,4.4,1.1,1.4,2.1,1.7,2.8,1.7,1.3,0,2.2-1,2.2-2.4,0-2.5-3.3-5.3-9.5-5.4,0-1.2,0-2.4.1-3.5,0-.4,0-.8,0-1.2h8.5c1.2,0,1.6-.6,1.6-1.1,0-.3,0-.7-1-1.7-1.2-1.2-3.7-3.2-4.5-3.2Z"/>
        </g>
        <circle class="cls-2" cx="451.5" cy="312.5" r="5.8"/>
        <g>
          <path class="cls-1" d="M604.7,306.6h9.7c1,0,1.8.8,1.8,1.8v4.2c0,1-.8,1.8-1.8,1.8h-9.7c-1,0-1.8-.8-1.8-1.8v-4.2c0-1,.8-1.8,1.8-1.8Z"/>
          <path class="cls-1" d="M614.4,316.7h-9.7c-1,0-1.8.8-1.8,1.8v5.8h13.1v-5.8c.1-1-.7-1.8-1.7-1.8Z"/>
          <path d="M623.3,296.1c-1.2-1.2-4.4-2.7-5.3-2.7s-1.7.9-2.2,1.5l-.3.3c0,0-.2.3-.7.3h-10.3c-1.8-1-6.1-2.6-6.6-2.6s-.5.2-.5.5,0,.2,0,.5c.8,3.2.8,7.2.8,13.7,0,9.3-.2,16.1-.5,20.3v.2c0,1.2.9,2,2.2,2s1.9-.4,2.5-1c.4-.4.6-.9.5-1.4v-.9c0,0,13.1,0,13.1,0v.5c0,1.3.9,2.1,2.3,2.1s1.7-.3,2.3-.9c.5-.5.7-1.2.7-1.9-.3-4.7-.5-15.5-.5-21.8s0-3,0-3.8c0-1.2,0-1.4,1.2-2,.8-.4,1.7-.9,1.8-1.8,0-.3-.1-.6-.5-1ZM616,324.3h-13.1v-5.8c0-1,.8-1.8,1.8-1.8h9.7c1,0,1.8.8,1.8,1.8v5.8ZM616.2,312.6c0,1-.8,1.8-1.8,1.8h-9.7c-1,0-1.8-.8-1.8-1.8v-4.2c0-1,.8-1.8,1.8-1.8h9.7c1,0,1.8.8,1.8,1.8v4.2ZM614.4,304.3h-9.7c-1,0-1.8-.8-1.8-1.8s0-.9,0-1.3v-3.4s13.2,0,13.2,0v4.8c0,1-.8,1.7-1.8,1.7Z"/>
        </g>
      </g>
      <g>
        <path d="M229.3,325.8v-4.4l-13.4,10.3v28.5h156.6v-28.5l-13.4-10.3v4.4c0,3.3-2.7,5.9-5.9,5.9h-118c-3.3,0-5.9-2.7-5.9-5.9Z"/>
        <path d="M229.3,278v-4.4l-13.4,10.3v28.5h156.6v-28.5l-13.4-10.3v4.4c0,3.3-2.7,5.9-5.9,5.9h-118c-3.3,0-5.9-2.7-5.9-5.9Z"/>
        <path d="M372.7,264.8h-156.8v-21.9c4.2,0,7.6-3.4,7.6-7.6h141.6c0,4.2,3.4,7.6,7.6,7.6v21.9Z"/>
      </g>
      <path class="cls-2" d="M346.6,316.5h-21.8c-1.6,0-3,1.3-3,3v19.9c0,1.6,1.3,3,3,3h21.8c1.6,0,3-1.3,3-3v-19.9c0-1.6-1.3-3-3-3ZM336.2,328.5h8.5c0,.7,0,2.2,0,3.3h-8.5v-3.3ZM322.8,319.4c0-1.2.9-2.1,2.1-2.1h10.4v3.2h-12.5v-1.1ZM335.3,332.7v3.6h-2.5v-3.6h2.5ZM332.8,331.8v-3.3h2.5v3.3h-2.5ZM322.8,321.4h12.5v2.5h-12.5v-2.5ZM322.8,324.7h12.5v2.9h-12.5v-2.9ZM322.8,332.7h2.5v3.8h-2.5v-3.8ZM328.6,341.4h-3.7c-1.2,0-2.1-.9-2.1-2.1v-1.9h3.4v-4.7h2.5v8.7ZM332,331.8h-9.2v-3.3h9.2v3.3ZM335.3,337.2v4.3h-5.8v-8.7h2.5v4.5h3.4ZM348.7,339.3c0,1.2-.9,2.1-2.1,2.1h-10.4v-2.4h12.5v.3ZM348.7,338.2h-12.5v-2.5h12.5v2.5ZM348.7,334.8h-12.5v-2.2h12.5v2.2ZM348.7,331.8h-3.2c0-1.8,0-2.8,0-3.3h3.2v3.3ZM348.7,327.6h-12.5v-2.9h12.5v2.9ZM348.7,323.9h-12.5v-2.5h12.5v2.5ZM348.7,320.5h-12.5v-3.2h10.4c1.2,0,2.1.9,2.1,2.1v1.1Z"/>
      <rect class="cls-2" x="288.7" y="235.3" width="11.3" height="124.9"/>
    </g>
  </g>
</svg>