<?xml version="1.0" encoding="UTF-8"?>
<svg xmlns="http://www.w3.org/2000/svg" version="1.1" viewBox="300 140 260 340">
  <defs>
    <style>
      .cls-1 {
        fill: none;
      }

      .cls-2 {
        fill: #bf0008;
      }

      .cls-3, .cls-4 {
        fill: #231815;
      }

      .cls-4 {
        stroke: #231815;
        stroke-miterlimit: 10;
        stroke-width: .7px;
      }
    </style>
  </defs>
  <!-- Generator: Adobe Illustrator 28.7.7, SVG Export Plug-In . SVG Version: 1.2.0 Build 194)  -->
  <g>
    <g id="_レイヤー_1" data-name="レイヤー_1">
      <g>
        <path class="cls-4" d="M342.9,411c-.4,0-.7,0-.9,0-1.2,0-2,.2-2.6.7-.5.4-.8.8-.9,1.2,0,.1,0,.2-.2.2s-.1,0-.2,0c0-.6.1-1.4.3-2.4.3,0,.4,0,.5,0,.4,0,1,0,1.7,0,.8,0,1.9,0,3.5,0s2.7,0,3.2,0c.4,0,1.1,0,1.8,0,0,.4.1.7.1,1.1,0,.4,0,.7,0,.9,0,0,0,0,0,.1,0,.1,0,.2-.2.2s-.1,0-.2,0-.1-.2-.3-.4c-.3-.4-.6-.7-.9-.9s-.6-.3-1-.4c-.4,0-1.1,0-2.3-.1,0,.7,0,1.6,0,2.6,0,3.2,0,5,.2,5.6.1.6.7.9,1.6.9s.3,0,.3.1-.1.1-.3.1h-5c-.1,0-.2,0-.2-.1s.1-.1.4-.1c.4,0,.8-.1,1-.3s.4-.5.5-.9c0-.4,0-1.5,0-3.3s0-3-.2-4.5Z"/>
        <path class="cls-4" d="M360.5,410.4h.4c.6,1.1,1.4,3.1,2.5,5.8.7,1.8,1.2,2.8,1.4,3.2s.7.6,1.2.7c.2,0,.3,0,.3.2s0,.1-.1.1h-.1c-.5,0-1.1,0-1.9,0-1.2,0-1.9,0-2.3,0-.2,0-.3,0-.3-.1s0-.1.2-.1c.5,0,.8-.1,1-.2.2-.1.3-.3.3-.5s-.2-.7-.5-1.6l-.5-1.3c-.3,0-1.5,0-3.8,0-.6,1.4-.8,2.2-.8,2.6s.1.5.4.7c.3.1.6.2.8.2.2,0,.3,0,.3.2s0,0,0,.1c-.9,0-1.4,0-1.6,0-.9,0-1.5,0-1.8,0-.2,0-.3,0-.3-.1s0-.1.2-.1c.6,0,1.1-.5,1.4-1.2.3-.7.8-2,1.6-3.8.6-1.6,1.3-3.2,2.1-4.7ZM360.2,412c-.5.9-1.1,2.3-1.8,4.1.6,0,1,0,1.2,0h2.3c-.2-.5-.5-1.2-.8-2-.4-1-.7-1.7-.9-2Z"/>
        <path class="cls-4" d="M375.8,410.6c.5,1.1,1.1,2,1.5,2.9.6,1,1,1.8,1.3,2.5.3.7.7,1.3,1.1,2,1.1-1.7,2.4-4.1,3.9-7.3h3.2c.1,0,.2,0,.2.1s0,.1-.2.1c-.6,0-1,.1-1.2.3-.2.2-.3.4-.4.8s0,1.1-.1,2.2c0,1.1,0,1.9,0,2.7,0,1.4,0,2.2,0,2.4,0,.2.1.4.3.5.2.1.5.2,1,.3.1,0,.2,0,.2.1s0,.1-.3.1h-3.2s-.8,0-.8,0c-.2,0-.3,0-.3-.1s0-.1.2-.1c.5,0,.8-.1.9-.2.1,0,.3-.3.3-.5,0-.3.1-.9.1-1.9l.2-3.6v-1.8c0-.1,0-.2,0-.2,0,0-.1,0-.2.1l-1.6,2.9c-1,1.9-1.7,3-1.9,3.6l-.5,1.1c-.2.3-.3.5-.3.6s0,0-.1,0c0,0-.1,0-.2-.2,0-.3-.6-1.3-1.5-2.9-.5-.9-1-2-1.7-3.2s-1-1.8-1.1-1.9,0,0-.1,0c0,0,0,0,0,.2v4.5c0,0-.1,1.5-.1,1.5,0,.8.1,1.3.4,1.5.2.2.6.4,1,.4s.4,0,.4.2,0,.1-.2.1h-.2s-.5,0-.5,0h-1.2c-.5,0-1.1,0-1.9,0,0,0,0,0,0-.1,0,0,0-.2.3-.2.5,0,.9-.2,1.2-.5s.4-1,.4-2.1v-1.3s0-3.3,0-3.3c0-.8-.1-1.3-.4-1.6-.2-.3-.6-.5-1.1-.5-.2,0-.3,0-.3-.2s0-.1.2-.1.2,0,.3,0h2.9Z"/>
        <path class="cls-4" d="M398.1,410.4h.4c.6,1.1,1.4,3.1,2.5,5.8.7,1.8,1.2,2.8,1.4,3.2s.7.6,1.2.7c.2,0,.3,0,.3.2s0,.1-.1.1h-.1c-.5,0-1.1,0-1.9,0-1.2,0-1.9,0-2.3,0-.2,0-.3,0-.3-.1s0-.1.2-.1c.5,0,.8-.1,1-.2.2-.1.3-.3.3-.5s-.2-.7-.5-1.6l-.5-1.3c-.3,0-1.5,0-3.8,0-.6,1.4-.8,2.2-.8,2.6s.1.5.4.7c.3.1.6.2.8.2.2,0,.3,0,.3.2s0,0,0,.1c-.9,0-1.4,0-1.6,0-.9,0-1.5,0-1.8,0-.2,0-.3,0-.3-.1s0-.1.2-.1c.6,0,1.1-.5,1.4-1.2.3-.7.8-2,1.6-3.8.6-1.6,1.3-3.2,2.1-4.7ZM397.8,412c-.5.9-1.1,2.3-1.8,4.1.6,0,1,0,1.2,0h2.3c-.2-.5-.5-1.2-.8-2-.4-1-.7-1.7-.9-2Z"/>
        <path class="cls-4" d="M414.7,411c-.4,0-.7,0-.9,0-1.2,0-2,.2-2.6.7-.5.4-.8.8-.9,1.2,0,.1,0,.2-.2.2s-.1,0-.2,0c0-.6.1-1.4.3-2.4.3,0,.4,0,.5,0,.4,0,1,0,1.7,0,.8,0,1.9,0,3.5,0s2.7,0,3.2,0c.4,0,1.1,0,1.8,0,0,.4.1.7.1,1.1,0,.4,0,.7,0,.9,0,0,0,0,0,.1,0,.1,0,.2-.2.2s-.1,0-.2,0-.1-.2-.3-.4c-.3-.4-.6-.7-.9-.9s-.6-.3-1-.4c-.4,0-1.1,0-2.3-.1,0,.7,0,1.6,0,2.6,0,3.2,0,5,.2,5.6.1.6.7.9,1.6.9s.3,0,.3.1-.1.1-.3.1h-5c-.1,0-.2,0-.2-.1s.1-.1.4-.1c.4,0,.8-.1,1-.3s.4-.5.5-.9c0-.4,0-1.5,0-3.3s0-3-.2-4.5Z"/>
        <path class="cls-4" d="M436.2,410.7c.2.6.3,1.3.5,2.3,0,0,0,0,0,0s0,0-.1,0c-.4-.5-.7-1-1.1-1.3-.3-.3-.7-.5-1-.6-.3-.1-.9-.2-1.8-.2s-1.4,0-1.9.1c0,0,0,.1,0,.3s0,0,0,.2c0,.4,0,1.5,0,3.2s0,.2,0,.3c.4,0,.7,0,.8,0,.7,0,1.2,0,1.5-.3.3-.2.6-.6.8-1.2,0-.1,0-.2.2-.2.1,0,.2,0,.2.2v.3c0,.4,0,.8,0,1.2,0,.7,0,1.3,0,1.8,0,.2,0,.3-.2.3s-.1,0-.1-.2c-.1-.6-.4-1-.7-1.3-.4-.3-1.2-.4-2.4-.4,0,.4,0,.9,0,1.8s0,1.7.1,2c0,.3.3.5.6.7.3.2.8.2,1.6.2,2.1,0,3.5-.7,4.1-2,0-.2.2-.2.2-.2s.1,0,.1.2,0,.1,0,.2c0,0-.1.4-.2,1.1,0,.1-.1.5-.3,1.2h-3.4c-.5,0-1.2,0-2.2,0-.9,0-1.8,0-2.5,0-.7,0-1.1,0-1.1,0s0,0,0,0c0,0,0-.1.3-.1.6,0,1-.1,1.2-.4.2-.3.3-1,.3-2.1v-1.5s0-1.4,0-1.4c0-.3,0-.8,0-1.6,0-.8,0-1.3,0-1.4,0-.1-.1-.2-.3-.3-.1-.1-.4-.2-.9-.3-.1,0-.2,0-.2-.2s0-.1.3-.1h1.7c.6.1,2,.1,4.3.1s2.3,0,2.3,0Z"/>
        <path class="cls-4" d="M449.8,415c1,.2,1.8.6,2.3,1,.5.4.8,1,.8,1.6s-.3,1.3-.9,1.8c-.6.6-1.5.9-2.8.9s-.6,0-1.1,0c-.3,0-.5,0-.5,0-1.7,0-2.8,0-3.4,0-.2,0-.3,0-.3-.1s0,0,0-.1c0,0,.3,0,.6-.1.2,0,.4-.1.5-.3.1-.1.2-.4.3-.8,0-.4,0-1,0-1.8s0-1.4,0-1.9c0-.5,0-.9,0-1.1,0-.8,0-1.5-.1-2,0-.5-.2-.8-.3-.9-.1-.1-.4-.2-.8-.3-.2,0-.2,0-.2-.2s0-.1.2-.1h1.5c.5,0,.9,0,1.4,0,1,0,1.6,0,1.8,0,1,0,1.8.2,2.4.6.6.4.9.9.9,1.6s-.2,1-.6,1.4-1,.7-1.9,1ZM447,415.4c0,.1-.1.3-.1.6v2.3c0,.8,0,1.3,0,1.4,0,0,.2.2.5.2s.7,0,1.3,0,.9,0,1.3-.2c.3-.1.6-.4.9-.8s.4-.8.4-1.4c0-.8-.3-1.4-.8-1.8-.5-.4-1.3-.6-2.3-.6s-.7,0-1.1,0ZM447,411c0,1.1,0,2,0,2.6v1.1c0,.1,0,.2,0,.3s.2,0,.4,0c1,0,1.9-.2,2.5-.5.6-.3.9-.9.9-1.7s-.2-1.2-.7-1.5c-.5-.3-1-.5-1.7-.5s-.9,0-1.4.2Z"/>
        <path class="cls-4" d="M464.2,410.4h.4c.6,1.1,1.4,3.1,2.5,5.8.7,1.8,1.2,2.8,1.4,3.2s.7.6,1.2.7c.2,0,.3,0,.3.2s0,.1-.1.1h-.1c-.5,0-1.1,0-1.9,0-1.2,0-1.9,0-2.3,0-.2,0-.3,0-.3-.1s0-.1.2-.1c.5,0,.8-.1,1-.2.2-.1.3-.3.3-.5s-.2-.7-.5-1.6l-.5-1.3c-.3,0-1.5,0-3.8,0-.6,1.4-.8,2.2-.8,2.6s.1.5.4.7c.3.1.6.2.8.2.2,0,.3,0,.3.2s0,0,0,.1c-.9,0-1.4,0-1.6,0-.9,0-1.5,0-1.8,0-.2,0-.3,0-.3-.1s0-.1.2-.1c.6,0,1.1-.5,1.4-1.2.3-.7.8-2,1.6-3.8.6-1.6,1.3-3.2,2.1-4.7ZM463.9,412c-.5.9-1.1,2.3-1.8,4.1.6,0,1,0,1.2,0h2.3c-.2-.5-.5-1.2-.8-2-.4-1-.7-1.7-.9-2Z"/>
        <path class="cls-4" d="M479.3,415.4c.5-.3.9-.6,1.2-.9.3-.3.8-.8,1.4-1.4.6-.6,1-1.1,1.2-1.3s.2-.4.2-.5,0-.2-.2-.3c-.1,0-.3-.2-.5-.2-.2,0-.3,0-.3-.2s0-.1.3-.1,0,0,.2,0c.2,0,.8,0,1.8,0s1.2,0,1.4,0c.3,0,.4,0,.4.1s0,.1-.2.2c-.5,0-.9.2-1.3.4-.4.2-.9.6-1.7,1.3-.8.7-1.5,1.3-2,2,.6,0,1.2,0,1.6.2s.8.4,1.1.8c.3.4.5,1.1.7,2,.4,1.6,1,2.4,1.9,2.5.2,0,.3,0,.3.2s0,.1-.1.1h-.7c-1.1,0-1.7,0-1.9,0-.3-.3-.4-.6-.5-.9s-.2-.9-.3-1.6c-.1-.7-.3-1.3-.6-1.9-.3-.6-.7-.9-1.3-.9s-.8.1-1.2.3c-.4.2-.7.4-.7.5,0,.1,0,.8,0,2s0,1.4,0,1.6c0,.2.2.4.4.5.2.1.5.2.8.2.2,0,.3,0,.3.2s0,.1-.2.1h0c-.2,0-.7,0-1.7,0s-1.8,0-2,0c0,0-.1,0-.2,0-.1,0-.2,0-.2-.1s0-.1.2-.1c.3,0,.5-.1.6-.2.1-.1.2-.2.3-.4,0-.1,0-.6.2-1.5,0-.8.1-1.5.1-2.1s0-1.4,0-1.9c0-.5,0-1.1,0-1.7,0-.6-.1-1-.2-1.1,0-.1-.1-.2-.3-.3s-.4-.1-.8-.2c-.1,0-.2,0-.2-.1,0-.1.1-.2.4-.2h.7s2.9,0,2.9,0c.1,0,.2,0,.2.1s0,0,0,.1c0,0-.2,0-.4,0-.3,0-.4,0-.5,0,0,0-.1,0-.2.2s0,.3,0,.5c0,.6,0,1.8,0,3.8Z"/>
        <path class="cls-4" d="M493.1,415.4c0-.7.2-1.4.7-2.2.4-.8,1.1-1.5,2-2,.9-.5,1.8-.8,2.9-.8s2.7.5,3.7,1.5c1,1,1.5,2.1,1.5,3.4s-.5,2.5-1.6,3.6c-1.1,1.1-2.4,1.6-3.9,1.6s-2.7-.5-3.7-1.4c-1-.9-1.5-2.1-1.5-3.7ZM494.9,415.1c0,.8.1,1.6.4,2.5s.7,1.5,1.3,1.8c.6.4,1.2.6,1.9.6,1.1,0,1.9-.5,2.6-1.4.6-.9,1-2,1-3.3s-.3-2.3-1-3.2c-.7-.9-1.5-1.4-2.6-1.4s-1.5.2-2,.7c-.5.5-.9,1.1-1.2,1.7-.2.7-.4,1.3-.4,1.9Z"/>
      </g>
      <g>
        <path class="cls-3" d="M372.2,451c.9,0,4.5-2.6,7.2-5.1.1-.1.2-.1.2-.1h.3c.7,0,.9-.3.9-.6s0-.3-.1-.4c-.4-.5-1.9-1.6-2.2-1.6s-.3.1-.4.3c-.5,1.5-3.9,5.2-5.8,6.5-.5.3-.5.5-.5.6s0,.3.4.3Z"/>
        <path class="cls-3" d="M397.2,445.4c-.2,0-.4,0-1,.8,0,0,0,0-.1,0h-2.6c-.6-.4-2.2-1.2-2.5-1.2h0c0,0-.2-.1-.3-.1h-.3v.3c0,0,0,.2,0,.2.2,1,.4,3.5.4,4.2v1.9c0,.1,0,.3,0,.4-.3-.5-1.1-1.3-1.9-1.6h-.1c-.2,0-.4,0-.6.1h-.1c-.2.4-.5.7-.7,1.1,0,0-.1,0-.1,0h-.7c0-1.6,0-2.4.1-2.5,0,0,0,0,.1,0,.3-.1.4-.4.4-.6s0-.1,0-.2h2.3c.7,0,.8-.4.8-.5,0-.7-1.8-1.9-2.2-1.9s-1.1.9-1.3,1.1c0,0-.1.1-.1.1h-2.6c.4-.7.8-1.4,1.3-2.3h0q0-.3.3-.3c.6-.1,1-.4,1-.8,0-.8-2.7-1.4-2.8-1.4-.4,0-.4.3-.4.5,0,.8-.8,3.3-1.9,5.5-.4-.4-1.1-.8-1.6-1-.1,0-.2-.1-.3-.2-.1,0-.2,0-.3,0-.1,0-.3,0-.3.3h0c-.4,1.9-5.7,7.3-7.7,8.7-.4.3-.5.5-.5.6v.3h.3c.3,0,1.9-.6,4.8-3.1,0,.6,0,1.3,0,1.4,0,2.1-.3,6.6-.6,9.5v.2c0,.7.4,1.1,1,1.1s1.5-.6,1.5-1.4v-1.2c0-2.8,0-6.9.3-9.4q0-.7.5-.9c.4-.2.7-.4.7-.7,0-.5-.4-.6-1.1-.7.7-.7,1.4-1.4,2-2h0q.3-.3.4-.3s0,0,.1,0c-.2.4-.5.7-.7,1.1-.3.4-.3.5-.3.7s0,0,0,0c0,0,0,0,0,0h-.3s0,.3,0,.3c0,.4.8,1.6,1.5,1.6h0c1.8-.2,2.6-.2,3.5-.3v7.6c-.5.1-.9.2-1.3.3h-.1s0-1.2,0-1.2c0-1.3,0-2.4,0-3.3,0-.1,0-.1.2-.2.5-.2.8-.5.8-.8,0-.9-2.9-1.1-3-1.1-.4,0-.4.2-.4.3s0,.1,0,.2c.1.6.2,1.7.2,2.7,0,.9,0,1.4,0,1.9,0,.6,0,1.1,0,1.9,0,0-.1,0-.2,0,0,0-.1,0-.2,0-.3,0-.9,0-1.5,0-.2,0-.5,0-.8,0-.3,0-.4.2-.4.4,0,.4,1.4,2.2,1.9,2.2s.3-.1.4-.2c0,0,.1-.1.2-.1,1.4-.5,9.2-3.3,10.4-4.4,0,2,0,3.8-.2,5.5h0c0,.9.6,1.2,1.1,1.2s.8-.2,1.1-.5c.2-.2.3-.5.3-.8,0-1.5,0-3.1-.1-4.7,0,0,.2,0,.3.2.5.3,1.3.8,1.5,1.1.1.4.3.5.8.5h0c1.5,0,3.1-.9,3.1-2.4v-2.6c-.1-1.3-.1-4-.1-6s0-1.6,0-2q0-.5.3-.7c0,0,.2,0,.3-.1.5-.2.7-.5.7-.8,0-.8-2.3-1.7-2.6-1.7ZM393,449.1v-.4c0-.9,0-.9.3-1.1h2.9s0,0,0,0c0,0,0,0,0,0,0,.9,0,4.4,0,7.3s0,3.3,0,4.1c0,.2,0,.5-1,.5s-1.2-.1-1.9-.2h-.2c0,0-.2,0-.2,0,0-1.3,0-2.6,0-3.8,0-2.1,0-4.1,0-6.3ZM384.4,450.4v1.3c-1.2,0-2.5,0-3.9-.3.6-.4,1.6-1.4,2.7-3h1.1c0,.6,0,1.1,0,2ZM371.1,456.5v.2s0,0,0,0v-.2s0,0,0,0ZM390.8,458.8c-.1,0-.4-.1-.8,0-1,.3-2.2.7-3.6,1.1v-3.2h3.2c.6,0,.8-.3.8-.6s0-.2,0-.4c-.3-.6-1.3-1.3-1.8-1.6,0,0-.2,0-.3,0-.3,0-1,.7-1.3,1.3,0,0,0,0,0,0h-.5v-2.6h3.6c.4,0,.6-.1.8-.3,0,1.2,0,2.5,0,3.9s0,1.6,0,2.4Z"/>
        <path class="cls-3" d="M431,461.9c-.3,0-.7.2-2,1.9h0c0,.1-.2.2-.3.2h-6.2c0-.6,0-1.3,0-2h7.7c.8,0,.9-.4.9-.6,0-.6-1.5-1.9-2.4-2.3,0,0,.1-.1.2-.2.2-.2.3-.5.3-.7-.1-1.7-.2-3.3-.2-4.5s0-1.2.5-1.4c.4-.2.8-.4.8-.8,0-.9-2.4-1.8-2.6-1.8s-.4,0-.5.2c-.1,0-.3.2-.4.4s-.2.2-.3.3c0,0-.1,0-.2,0h-3.7c0-.7,0-1.3,0-1.9h10.6c.8,0,.9-.4.9-.6,0-.6-1.7-2.3-2.7-2.6h0c0,0-.2,0-.3,0-.2,0-.6.1-1.9,1.8h0c0,.2-.2.2-.3.2h-6.1s0,0,0,0c0-.1,0-.2,0-.3q0-.9.3-1.1c.3-.1.5-.3.6-.5,1.4-.1,2.8-.3,3.9-.5h0c.2,0,.4,0,.5.1.2.1.5.1.6.1.5,0,.6-.3.6-.5,0-.8-1.5-2.2-1.6-2.2h0c-.1-.1-.2-.2-.4-.2s-.2,0-.3.1h-.1c-.3.2-.8.5-1.4.7-3.2.8-9.7,1.6-13.6,1.8-.5,0-.7.2-.7.5,0,.6.8.6,3.4.6s3.8,0,5.7-.2c0,.5,0,1.1,0,1.7h-.5c-1.7,0-7.5-.1-10.3-.4h-.3s0,.3,0,.3c0,.5,1,1.7,1.7,1.7h0c2.5-.2,7.2-.3,8.7-.3h.7v1.9h-3.2c-.7-.4-2.6-1.2-2.9-1.2s-.4.1-.4.4h0c0,.1,0,.2,0,.2,0,.4.4,2.1.4,4.3s0,2.9-.2,5h0c0,.6.4,1,1.1,1s.9-.2,1.2-.5c.2-.2.3-.4.2-.6,0-.2,0-.3,0-.5,0,0,0-.2,0-.2h3.8c0,.8,0,1.6,0,2.4-1.8,0-5.3,0-8.1-.4h-.3s0,.3,0,.3c0,.5,1,1.6,1.7,1.6h0c2.7-.3,5.3-.3,6.6-.3h0c0,.3,0,.7,0,1,0,.3,0,.6,0,.9h-1.5c-1.5,0-6.6,0-9.6-.4h-.3s0,.3,0,.3c0,.5,1,1.6,1.7,1.6h0c2.4-.2,6.3-.3,8.1-.3h14.6c.8,0,.9-.4.9-.6,0-.8-2.3-2.7-3.1-2.7ZM422.4,453.8v-2h4c0,0,0,0,0,0,0,.5,0,1.2,0,2h-4.1ZM426.2,460.7c0,0-.2.1-.3.1h-3.4c0-.4,0-.8,0-1.2,0-.4,0-.8,0-1.2h4.1c0,.5.3.9.8,1-.6.5-1.2,1.3-1.2,1.3ZM422.4,457.2v-2.2h4.1v2.2h-4.1ZM416.8,451.8s0,0,.2,0h3.3v2h-3.8c0-1.8,0-1.8.4-2ZM420.3,455c0,.4,0,.7,0,1.1,0,.4,0,.8,0,1.2h-3.8c0-.8,0-1.5,0-2.2h3.8ZM427.3,442.6s0,0,0,0h0s0,0,0,0Z"/>
        <path class="cls-3" d="M468.2,461.8c-.6,0-1.5,1.5-1.7,1.7,0,0-.2.1-.3.1h-5.1v-2.4h5.3c.7,0,.9-.4.9-.6,0-.8-1.6-2-2.5-2.3h0c0,0-.1,0-.2,0-.2,0-.5,0-1.7,1.6,0,0-.1.1-.2.1h-1.4v-.5q0-.6.3-.7c0,0,.2,0,.3-.2.2-.1.6-.3.6-.6,0-.7-1.9-.9-2.8-1,1.9-.3,3.9-.6,5.8-.9.3.3.6.6.9,1,.4.6.9.7,1.2.7.7,0,1.2-.6,1.2-1.3,0-2.5-6-3.8-6.7-3.8s-.4.2-.4.4.2.3.3.4c.8.4,1.5.9,2.2,1.4-2.2.2-4,.3-5.6.4.5-.7,1.1-1.6,1.5-2.2h0c0-.2.1-.3.3-.3.6-.1.9-.3,1-.6h6.3c.7,0,.8-.4.8-.6,0-.7-1.9-2-2.7-2s-.6.2-1.6,1.3c0,.1,0,.1-.1.1h-3.8c-1.4,0-5.2-.2-7.3-.4h-.2c0-.6,0-1.2,0-1.7h0c0-.1,12.8-.1,12.8-.1h0c0,.7.4,1,1.1,1s1.1-.3,1.2-.5c.2-.2.3-.5.3-.7,0-.2,0-.4,0-.6,0-.5-.1-1.2-.1-1.5s0-.4.7-.7c.4-.2.8-.4.8-.9,0-.9-2.3-1.9-2.4-1.9-.2,0-.3,0-.4,0-.3,0-.6.3-1.2.9h0c0,0-.1.1-.2.1h-11.9c-.8-.4-2.8-1.2-3.2-1.2s-.4.2-.4.4,0,.2,0,.3c.3,1.1.6,4.4.6,6.8,0,6.3-1.9,10.7-5.7,13.5-.7.5-.8.6-.8.9s.1.3.4.3.7-.2,1-.4c5.9-2.9,7.3-8.5,7.6-13.2.3.5.9,1.2,1.5,1.2h0c.8,0,2.3-.1,3.6-.2-.1.7-.3,1.6-.9,3.1-.6,0-1.2,0-1.8,0h0c-.4,0-1.3,0-2.1-.3h-.2c-.2,0-.3.1-.3.3s0,.1,0,.2c0,0,.8,2.2,1.5,2.2s.3,0,.4-.2c0,0,.2-.1.2-.1h.5c1.2-.2,2.5-.4,3.7-.5,0,0,0,.1,0,.2,0,0,0,.2,0,.2.2.7.3,1.6.3,2.4-2.6,0-4.6-.2-6.3-.4h-.3s0,.3,0,.3c0,.5,1,1.7,1.7,1.7h0c1.8-.2,3.5-.2,4.9-.3,0,.4,0,.8,0,1.2s0,.8,0,1.1h-.3c-1.7,0-6.5-.1-9.3-.4h-.3s0,.3,0,.3c0,.5,1,1.7,1.7,1.7h0c2.4-.2,6-.3,7.8-.3h11.7c.8,0,.9-.4.9-.6,0-.7-2.2-2.5-2.9-2.5ZM465.6,445.5v2.3h-12.9v-.6c0-1.4,0-1.5.4-1.6h.2c0-.1,12.1-.1,12.1-.1.2,0,.2,0,.2,0Z"/>
      </g>
      <g>
        <g>
          <path class="cls-3" d="M336.5,364.3c0,6.5,0,13.6-.1,17.5h-3.7c-4.1,0-17.8-.3-25.1-1.1h-.4s0,.4,0,.4c0,1,2.2,3.7,3.7,3.7h.1c6.5-.6,17.6-.7,21.3-.7h37.6c1.8,0,2-.9,2-1.3,0-1.1-3.8-5-6.6-6-.2,0-.5-.1-.7-.1-.4,0-.7.1-.9.4-1.2,1.1-3,3.1-3.9,4.4-.1.2-.6.4-.9.4h-16.9c0-3.9,0-10.9,0-17.6,0-1.4,1.1-2.5,2.5-2.5h18.9c1.5,0,1.8-.8,1.8-1.3,0-1.3-4-4.9-6.1-5.7-.2,0-.5-.1-.7-.1s-.5,0-.8.3c-.6.5-1.8,1.9-2.7,3-.4.5-.7.9-1,1.1s-.5.4-.8.4h-8.4c-1.4,0-2.5-1.1-2.5-2.5,0-4,0-7.3.1-8.5v-.5q.1-3.1,1.4-3.7c.8-.4,1.3-.9,1.3-1.3s0-.4-.2-.6h23.6c1.7,0,1.8-1,1.8-1.3,0-1.6-5-5.5-6.4-6h-.1s0,0-.1,0c0,0-.2,0-.3,0-1.7,0-5.1,4.6-5.1,4.6-.1.2-.5.4-.8.4h-21.4c-4,0-18.3-.2-25.6-1h-.4v.4c0,.9,2.2,3.6,3.8,3.6h0c6.8-.6,18.5-.7,21.8-.7h.7c.4,1.8.6,4.2.6,7.4v7.2c0,1.4-1.1,2.5-2.5,2.5-5.5,0-14.1-.4-19.5-1.1h-.4c0,0,0,.4,0,.4,0,1.1,2.2,3.7,3.6,3.7h.1s16.1-.6,16.1-.6c1.4,0,2.6,1.1,2.6,2.5Z"/>
          <path class="cls-3" d="M421.6,354.3c1.3,0,2.4,1,2.6,2.2.2,1.2.3,2.4.4,3.6.1,2-1.4,3.6-3.4,3.6h-5.1c-4.2,0-17.1-.2-24.5-1h-.4v.4c0,1.1,2.2,3.7,3.7,3.7h.1c6.4-.6,16.9-.7,20.7-.7h5.2c2,0,3.6,1.8,3.3,3.8-1.6,11.7-7.6,13.6-11.3,13.6s-2.9-.2-4.4-.7c-.7-.2-1.6-.5-2.1-.5s-.5.4-.5.4c0,.4.4.7,4.9,3,1.7.9,4.1,2.1,4.3,2.4.5.6,1.1.7,1.5.7,3.5,0,12.1-3.6,13.2-19.2.1-2,1.8-3.5,3.8-3.5h19.7c1.7,0,1.9-.7,1.9-1.2,0-1.6-5.5-6.4-7.3-6.4s-4.2,4-4.8,4.8c-.1.2-.5.4-.9.4h-9.2c-1.8,0-3.2-1.3-3.4-3.1-.1-1.3-.3-2.5-.6-3.7-.3-1.4.8-2.7,2.2-2.7h19.7c1.8,0,1.9-.9,1.9-1.2,0-1.1-3.6-4.8-6.3-5.7-.3-.2-.5-.2-.8-.2s-1.2,0-4.5,4.2h0c-.2.4-.6.5-.9.5h-10c-1.5,0-2.9-.9-3.5-2.4-1.4-3.2-3.1-5.9-5-7.7,5.9-.5,11.3-1.2,15.8-2,.2,0,.3,0,.5,0,.4,0,.9.1,1.2.2.4.2.9.3,1.4.3,1.1,0,1.3-.7,1.3-1.1,0-1.4-4.1-5.4-4.8-5.4s-.4.1-.5.2c0,0,0,0-.2.1-1.3.8-2.6,1.5-4,1.8-8.2,2.1-21.8,4.3-32.3,5-.5,0-1.5.1-1.5.7s1.5.9,3.7.9c4.2,0,8.8-.2,13.8-.5,0,.8.5,1.3,1.2,1.3s.4,0,.6,0h.2c0,0,.2,0,.2,0,1.3,0,2.7,2.2,3.9,5.9.4,1.4-.6,2.8-2.1,2.7l-26.1-.9h-.4s0,.4,0,.4c0,1.1,2.4,3.7,3.9,3.7h.1s23.6-.7,23.6-.7Z"/>
          <path class="cls-3" d="M473.3,354c.9,0,7.6-3.7,14.7-11.9h15.7c1.6,0,1.8-.7,1.8-1,0-1.4-4.3-5.3-5.9-5.3s-3.9,3.7-3.9,3.7c-.1.2-.5.3-.6.4h-5.1c.4-.5.8-1.1,1.2-1.6.3-.4.5-.7.8-1.1q.6-.8,1.5-.8c.6,0,2.5-.1,2.5-1.3,0-1.9-7-4.2-7.6-4.2s-.6.5-.6.9v.2c-.4,5.2-9.7,16.7-14.2,20.5-.3.2-.8.7-.8,1.1s.2.5.6.5Z"/>
          <path class="cls-3" d="M516.9,349.9c.6,1.7,1.8,2.7,3.2,2.7s3.1-1.2,3.1-3.2c0-4.6-8.2-6.3-9.6-6.3s-.6,0-.6.5.2.6.5,1c1.1,1.2,2.6,3.1,3.4,5.4h0Z"/>
          <path class="cls-3" d="M528.7,335.2h-.2c-.3-.1-.8,0-1.1.2h0c-1,1.1-2.7,3.2-3.5,4.1-.1.2-.5.3-.5.4h-10.9c.8-1,1.5-1.9,2.1-2.8.6-.8.7-.8,1.5-.8,1.2,0,2.5-.2,2.5-1.2,0-1.6-6.7-4-7.5-4s-.6.5-.6.9c-1,5.5-6.5,14.1-10.5,17.8-.3.3-.7.7-.7,1.1s0,.4.5.4c1,0,5.9-3.1,11-9.2h22.6c1.5,0,1.7-.8,1.7-1.1,0-1.8-5.1-5.3-6.1-5.8Z"/>
          <path class="cls-3" d="M498.8,354.6c-.3,0-.6,0-.9.3-.7.6-1.9,2.1-2.7,3.2-.1.2-.5.3-.5.4h-.5l.2-2.4c.2-1.4.2-1.5,1-1.8h.3c1-.5,1.5-1,1.5-1.5s-.2-.6-.6-.9c1-.5,1.6-1.6,1.6-2.8,0-4.3-7.9-6.2-9-6.2s-.6,0-.6.5.2.6.5.9c1.5,1.8,2.6,3.6,3.1,5.3,0,.4.2.7.4,1-1-.2-2.5-.6-3.2-.6s-.5.3-.5.5,0,.3,0,.5c0,0,.5,1.7.5,7.5-2.7,0-8.7-.1-13.9-.9h-.4c0,0,0,.4,0,.4,0,1,2.1,3.5,3.2,3.5h.1c4.4-.5,8.4-.6,11.1-.6v.9c-4,6.6-14.5,15.1-18.9,17.5-1.2.6-1.4,1-1.4,1.3s0,.5.6.5c2,0,12.6-4.3,19.4-11.8-.3,5.2-.7,11-1.2,18v.2c0,1.5,1.2,2.2,2.4,2.2s1.8-.2,2.7-1.1c.4-.4.6-.9.6-1.5,0-3.9,0-7.5,0-10.9s0-6,0-8.7c1.4.9,2.9,2.4,4.6,4.6,1.1,1.4,2.2,1.7,2.9,1.7,1.3,0,2.3-1,2.3-2.5,0-2.6-3.4-5.4-9.8-5.5,0-1.2,0-2.4.1-3.6,0-.4,0-.8,0-1.3h8.8c1.2,0,1.6-.6,1.6-1.2,0-.3,0-.7-1-1.8-1.2-1.3-3.8-3.3-4.6-3.3Z"/>
        </g>
        <circle class="cls-2" cx="354.6" cy="371.1" r="6"/>
        <g>
          <path class="cls-1" d="M512.8,365h10.1c1,0,1.8.8,1.8,1.8v4.4c0,1-.8,1.8-1.8,1.8h-10.1c-1,0-1.8-.8-1.8-1.8v-4.4c0-1,.8-1.8,1.8-1.8Z"/>
          <path class="cls-1" d="M522.9,375.4h-10c-1,0-1.8.8-1.8,1.8v6h13.6v-6c.1-1-.7-1.8-1.7-1.8Z"/>
          <path d="M532.1,354.1c-1.2-1.3-4.6-2.8-5.5-2.8s-1.7.9-2.3,1.5l-.3.3c0,0-.2.3-.7.3h-10.7c-1.9-1.1-6.3-2.7-6.8-2.7s-.5.2-.5.5,0,.3,0,.5c.8,3.3.8,7.4.8,14.1,0,9.6-.2,16.6-.5,21v.2c0,1.3.9,2.1,2.3,2.1s1.9-.4,2.5-1c.4-.4.6-.9.6-1.4v-.9c0,0,13.5,0,13.5,0v.5c0,1.3.9,2.2,2.3,2.2s1.8-.3,2.4-.9c.5-.5.8-1.2.7-2-.3-4.9-.6-16.1-.6-22.6s0-3.1,0-4c0-1.2,0-1.4,1.2-2,.8-.4,1.7-.9,1.8-1.8,0-.3-.1-.6-.5-1ZM524.6,383.3h-13.6v-6c0-1,.8-1.8,1.8-1.8h10c1,0,1.8.8,1.8,1.8v6ZM524.7,371.2c0,1-.8,1.8-1.8,1.8h-10.1c-1,0-1.8-.8-1.8-1.8v-4.4c0-1,.8-1.8,1.8-1.8h10.1c1,0,1.8.8,1.8,1.8v4.4ZM522.9,362.6h-10c-1,0-1.8-.8-1.8-1.9s0-.9,0-1.3v-3.5s13.7,0,13.7,0v4.9c0,1-.8,1.8-1.8,1.8Z"/>
        </g>
      </g>
      <g>
        <path d="M330.4,256.1v-6.1l-18.8,14.4v40h219.7v-40l-18.8-14.4v6.1c0,4.6-3.7,8.3-8.3,8.3h-165.5c-4.6,0-8.3-3.7-8.3-8.3Z"/>
        <path d="M330.4,189.1v-6.1l-18.8,14.4v40h219.7v-40l-18.8-14.4v6.1c0,4.6-3.7,8.3-8.3,8.3h-165.5c-4.6,0-8.3-3.7-8.3-8.3Z"/>
        <path d="M531.6,170.5h-219.9v-30.7c5.9,0,10.6-4.8,10.6-10.6h198.7c0,5.9,4.8,10.6,10.6,10.6v30.7Z"/>
      </g>
      <path class="cls-2" d="M495,243h-30.5c-2.3,0-4.2,1.9-4.2,4.2v27.9c0,2.3,1.9,4.2,4.2,4.2h30.5c2.3,0,4.2-1.9,4.2-4.2v-27.9c0-2.3-1.9-4.2-4.2-4.2ZM480.3,259.9h12c0,1,0,3.1,0,4.7h-12v-4.7ZM461.5,247.2c0-1.6,1.3-3,3-3h14.7v4.5h-17.6v-1.5ZM479.1,265.8v5.1h-3.5v-5.1h3.5ZM475.6,264.6v-4.7h3.5v4.7h-3.5ZM461.5,250h17.6v3.4h-17.6v-3.4ZM461.5,254.6h17.6v4h-17.6v-4ZM461.5,265.8h3.5v5.4h-3.5v-5.4ZM469.7,278.1h-5.2c-1.6,0-3-1.3-3-3v-2.7h4.7v-6.6h3.5v12.3ZM474.4,264.6h-12.9v-4.7h12.9v4.7ZM479.1,272.1v6h-8.2v-12.3h3.5v6.3h4.7ZM497.9,275.1c0,1.6-1.3,3-3,3h-14.7v-3.4h17.6v.4ZM497.9,273.5h-17.6v-3.5h17.6v3.5ZM497.9,268.8h-17.6v-3h17.6v3ZM497.9,264.6h-4.4c0-2.6,0-3.9,0-4.7h4.4v4.7ZM497.9,258.7h-17.6v-4h17.6v4ZM497.9,253.4h-17.6v-3.4h17.6v3.4ZM497.9,248.8h-17.6v-4.5h14.7c1.6,0,3,1.3,3,3v1.5Z"/>
      <rect class="cls-2" x="413.7" y="129.2" width="15.8" height="175.2"/>
    </g>
  </g>
</svg>