<?xml version="1.0" encoding="UTF-8"?>
<svg xmlns="http://www.w3.org/2000/svg" version="1.1" viewBox="0 0 248 116">
  <defs>
    <style>
      .cls-1 {
        fill: #BF0008;
      }

      .cls-2 {
        fill: #fff;
      }
    </style>
  </defs>
  <!-- Generator: Adobe Illustrator 28.7.7, SVG Export Plug-In . SVG Version: 1.2.0 Build 194)  -->
  <g>
    <g id="_レイヤー_1" data-name="レイヤー_1">
      <g>
        <g>
          <path class="cls-2" d="M119.6,87.6c-.2,0-.4,0-.5,0-.6,0-1.1.1-1.4.4-.3.2-.4.5-.5.6,0,0,0,.1-.1.1s0,0,0,0c0-.3,0-.7.2-1.3.1,0,.2,0,.3,0,.2,0,.5,0,.9,0,.4,0,1,0,1.9,0s1.4,0,1.7,0c.2,0,.6,0,1,0,0,.2,0,.4,0,.6,0,.2,0,.4,0,.5,0,0,0,0,0,0,0,0,0,0,0,0s0,0,0,0,0,0-.2-.2c-.2-.2-.3-.4-.5-.5s-.3-.2-.5-.2c-.2,0-.6,0-1.2,0,0,.4,0,.9,0,1.4,0,1.7,0,2.7.1,3,0,.3.4.5.9.5s.2,0,.2,0,0,0-.2,0h-2.7c0,0-.1,0-.1,0s0,0,.2,0c.2,0,.4,0,.6-.2s.2-.3.2-.5c0-.2,0-.8,0-1.7s0-1.6,0-2.4Z"/>
          <path class="cls-2" d="M121.4,92.8h-2.7c-.2,0-.3-.1-.3-.2s0-.2.4-.2.3,0,.4-.1c.1,0,.2-.2.2-.4,0-.2,0-.8,0-1.7s0-1.5,0-2.3c-.1,0-.3,0-.3,0-.6,0-1,.1-1.3.3-.3.3-.4.4-.4.5,0,.1-.1.2-.3.2s-.1,0-.2,0h0c0,0,0-.1,0-.1,0-.3,0-.7.2-1.3h0c0-.1.1-.1.1-.1.1,0,.2,0,.3,0,.2,0,.5,0,.9,0,.4,0,1.1,0,1.9,0s1.4,0,1.7,0c.2,0,.6,0,1,0h.2c0,.3,0,.5,0,.8,0,.2,0,.4,0,.5,0,0,0,0,0,0,0,.2-.1.3-.3.3s-.2,0-.2,0c0,0,0,0-.2-.3-.1-.2-.3-.3-.4-.4-.1,0-.3-.2-.5-.2-.2,0-.5,0-1,0,0,.4,0,.7,0,1.2,0,1.7,0,2.7.1,3,0,0,0,.3.7.3s.4.2.4.2,0,.3-.3.3ZM121.5,92.6h0ZM119.5,92.4h1.2c-.2-.1-.2-.3-.3-.4,0-.3-.1-1.3-.1-3.1s0-1,0-1.4c-.2,0-.4,0-.6,0,0,.8,0,1.6,0,2.4s0,1.6,0,1.8c0,.2-.1.4-.3.6s0,0,0,0ZM122,87.6c.1,0,.2,0,.3.2.2.1.4.3.5.5,0,0,0,0,0,0,0,0,0-.2,0-.3,0-.2,0-.3,0-.4-.3,0-.6,0-.8,0ZM117.4,87.6c0,.2,0,.5-.1.6,0-.1.2-.2.4-.4.1-.1.3-.2.5-.3-.2,0-.5,0-.6,0s0,0-.1,0Z"/>
        </g>
        <g>
          <path class="cls-2" d="M129,87.3h.2c.3.6.8,1.6,1.3,3.1.4.9.6,1.5.8,1.7s.4.3.7.4c0,0,.1,0,.1,0s0,0,0,0h0c-.3,0-.6,0-1,0-.6,0-1,0-1.2,0,0,0-.1,0-.1,0s0,0,.1,0c.2,0,.4,0,.5-.1,0,0,.1-.1.1-.3s0-.4-.3-.9l-.3-.7c-.2,0-.8,0-2,0-.3.7-.5,1.2-.5,1.4s0,.3.2.4c.1,0,.3.1.4.1.1,0,.2,0,.2,0s0,0,0,0c-.5,0-.7,0-.8,0-.5,0-.8,0-1,0,0,0-.1,0-.1,0s0,0,.1,0c.3,0,.6-.2.8-.6.2-.4.5-1,.8-2,.3-.9.7-1.7,1.1-2.5ZM128.9,88.2c-.3.5-.6,1.2-1,2.2.3,0,.5,0,.6,0h1.2c-.1-.3-.3-.6-.5-1.1-.2-.5-.4-.9-.5-1.1Z"/>
          <path class="cls-2" d="M132.1,92.8h0c-.3,0-.6,0-1,0-.6,0-1,0-1.2,0h0c-.3,0-.3-.2-.3-.2s0-.2.3-.2c.3,0,.4,0,.4,0,0,0,0,0,0-.1s0-.2-.3-.8l-.2-.6c-.3,0-.9,0-1.8,0-.3.9-.4,1.1-.4,1.2s0,.2.1.2c.1,0,.3.1.4.1.3,0,.3.2.3.3s0,.1-.2.2h0s0,0,0,0c-.5,0-.7,0-.8,0-.5,0-.8,0-1,0h0c-.3,0-.3-.2-.3-.2s0-.2.3-.3c.3,0,.5-.2.6-.5.2-.4.4-1,.8-2,.3-.9.7-1.7,1.1-2.6h0c0,0,.4,0,.4,0h0c.3.7.8,1.7,1.4,3.2.4.9.6,1.5.7,1.7.1.2.3.3.5.3.3,0,.3.2.3.3,0,.1,0,.2-.2.2ZM128.1,92.7h0ZM131,92.4c.1,0,.3,0,.4,0,0,0-.1-.1-.2-.2-.1-.2-.4-.8-.8-1.8-.5-1.4-1-2.4-1.3-3,0,.1-.1.3-.2.4v.2c.2.2.3.6.6,1.1.2.5.3.8.5,1.1v.2c0,0,0,0,0,0l.3.7c.2.6.3.8.3.9s0,.2-.1.3c.2,0,.3,0,.5,0ZM127.2,92c0,.2-.2.3-.4.5.1,0,.3,0,.5,0s0,0,0,0c-.1-.1-.2-.3-.2-.4h0ZM128.6,90.2h1c0-.2-.2-.5-.4-.8-.1-.3-.2-.6-.3-.8-.2.4-.4,1-.7,1.6.2,0,.3,0,.4,0Z"/>
        </g>
        <g>
          <path class="cls-2" d="M137.3,87.4c.3.6.6,1.1.8,1.5.3.5.5,1,.7,1.3.2.4.4.7.6,1,.6-.9,1.3-2.2,2.1-3.9h1.7c0,0,0,0,0,0s0,0-.1,0c-.3,0-.5,0-.6.2-.1,0-.2.2-.2.4s0,.6,0,1.2c0,.6,0,1,0,1.4,0,.7,0,1.2,0,1.3,0,.1,0,.2.1.3,0,0,.3.1.5.2,0,0,.1,0,.1,0s0,0-.1,0h-1.7s-.4,0-.4,0c0,0-.1,0-.1,0s0,0,.1,0c.2,0,.4,0,.5-.1,0,0,.1-.1.2-.3,0-.1,0-.5,0-1v-1.9c0,0,.1-.9.1-.9,0,0,0-.1,0-.1,0,0,0,0,0,0l-.9,1.6c-.6,1-.9,1.6-1,1.9l-.3.6c0,.2-.1.3-.2.3s0,0,0,0c0,0,0,0,0-.1,0-.2-.3-.7-.8-1.6-.3-.5-.6-1.1-.9-1.7s-.5-1-.6-1,0,0,0,0c0,0,0,0,0,0v2.4s0,.8,0,.8c0,.4,0,.7.2.8.1.1.3.2.5.2s.2,0,.2,0,0,0-.1,0h0s-.3,0-.3,0h-.6c-.3,0-.6,0-1,0,0,0,0,0,0,0,0,0,0,0,.2,0,.3,0,.5,0,.6-.3s.2-.5.2-1.1v-.7s0-1.8,0-1.8c0-.4,0-.7-.2-.9-.1-.2-.3-.2-.6-.3-.1,0-.2,0-.2,0s0,0,.1,0,0,0,.2,0h1.6Z"/>
          <path class="cls-2" d="M135.4,92.8h0c-.1,0-.1-.2-.1-.2s0-.2.3-.3c.2,0,.4,0,.5-.2,0,0,.2-.3.2-1v-.7s0-1.8,0-1.8c0-.5,0-.6-.2-.7-.1-.1-.3-.2-.5-.2-.3,0-.3-.2-.3-.3s0-.2.3-.2.1,0,.2,0h1.6s0,.1,0,.1c.3.6.6,1.1.8,1.5.3.5.5,1,.7,1.3.1.3.3.5.4.8.6-.9,1.2-2.1,1.9-3.7h0c0-.1,1.9,0,1.9,0,.2,0,.3.1.3.2s0,.2-.3.2c-.4,0-.5,0-.5.1,0,0-.1.2-.1.3,0,.2,0,.5,0,1.2,0,.6,0,1.1,0,1.4,0,.9,0,1.2,0,1.3,0,0,0,.1,0,.2,0,0,.1,0,.4.1.2,0,.3.2.3.2s0,.2-.3.2h-2.1c-.3,0-.3-.2-.3-.2s0-.2.3-.2c.3,0,.4,0,.4,0,0,0,0,0,.1-.2,0,0,0-.3,0-1v-2.4c.1,0-.5,1.2-.5,1.2-.5,1-.9,1.6-1,1.9l-.3.6c-.1.3-.2.3-.2.4,0,0-.1,0-.2,0s-.2,0-.3-.2c0,0-.2-.4-.8-1.5-.3-.5-.5-1-.9-1.7-.2-.3-.3-.5-.4-.7v2.8c0,.5,0,.6,0,.7,0,0,.2.1.4.1.3,0,.4.2.4.3s0,.2-.3.2h0s-.3,0-.3,0h-.6c-.3,0-.6,0-1,0h0ZM136.4,92c0,.2,0,.3-.2.4,0,0,0,0,0,0,0,0,.2,0,.2,0h.3s0,0,0,0c0,0-.2-.2-.2-.4ZM141.4,92.4h.9c-.1,0-.2-.2-.2-.4,0-.1,0-.6,0-1.3s0-.8,0-1.4c0-.5,0-1,0-1.2,0-.3.1-.4.3-.6,0,0,0,0,0,0h-.9c0,.1-.1.3-.2.4,0,0,.1,0,.2,0s.2,0,.2.3v2.9c-.1.7-.2,1-.2,1.1,0,.1,0,.2-.2.3ZM140.8,92.4h0ZM136.7,88c0,0,.1,0,.2,0,0,0,0,0,.6,1,.4.7.7,1.2.9,1.7.5.9.7,1.3.8,1.4,0,0,0,0,0,0l.3-.6h0c0,0-.1-.2-.1-.2-.2-.3-.4-.7-.6-1.1-.2-.4-.4-.8-.7-1.3-.2-.4-.5-.9-.8-1.5h-1s0,0,.1.1c0,0,.1.2.2.4,0,0,.2,0,.2,0ZM135.6,87.3h0,0Z"/>
        </g>
        <g>
          <path class="cls-2" d="M149.2,87.3h.2c.3.6.8,1.6,1.3,3.1.4.9.6,1.5.8,1.7s.4.3.7.4c0,0,.1,0,.1,0s0,0,0,0h0c-.3,0-.6,0-1,0-.6,0-1,0-1.2,0,0,0-.1,0-.1,0s0,0,.1,0c.2,0,.4,0,.5-.1,0,0,.1-.1.1-.3s0-.4-.3-.9l-.3-.7c-.2,0-.8,0-2,0-.3.7-.5,1.2-.5,1.4s0,.3.2.4c.1,0,.3.1.4.1.1,0,.2,0,.2,0s0,0,0,0c-.5,0-.7,0-.8,0-.5,0-.8,0-1,0,0,0-.1,0-.1,0s0,0,.1,0c.3,0,.6-.2.8-.6.2-.4.5-1,.8-2,.3-.9.7-1.7,1.1-2.5ZM149.1,88.2c-.3.5-.6,1.2-1,2.2.3,0,.5,0,.6,0h1.2c-.1-.3-.3-.6-.5-1.1-.2-.5-.4-.9-.5-1.1Z"/>
          <path class="cls-2" d="M152.3,92.8h0c-.3,0-.6,0-1,0-.6,0-1,0-1.2,0h0c-.3,0-.3-.2-.3-.2s0-.2.3-.2c.3,0,.4,0,.4,0,0,0,0,0,0-.1s0-.2-.3-.8l-.2-.6c-.3,0-.9,0-1.8,0-.3.8-.4,1.1-.4,1.2s0,.2.1.2c.1,0,.2.1.4.1.3,0,.3.2.3.3s0,.1-.2.2h0s0,0,0,0c-.5,0-.7,0-.8,0-.5,0-.8,0-1,0h0c-.3,0-.3-.2-.3-.2s0-.2.3-.3c.3,0,.5-.2.6-.5.2-.4.4-1,.8-2,.3-.9.7-1.7,1.1-2.6h0c0,0,.4,0,.4,0h0c.3.7.8,1.7,1.4,3.2.4.9.6,1.5.7,1.7.1.2.3.3.5.3.3,0,.3.2.3.3,0,.1,0,.2-.2.2ZM148.3,92.7h0ZM151.2,92.4c.1,0,.3,0,.4,0,0,0-.1-.1-.2-.2-.1-.2-.4-.8-.8-1.8-.5-1.4-1-2.4-1.3-3,0,.1-.1.3-.2.4v.2c.2.2.3.6.6,1.1.2.5.3.8.5,1.1v.2c0,0,0,0,0,0l.3.7c.2.6.3.8.3.9s0,.2-.1.3c.2,0,.3,0,.5,0ZM147.4,92c0,.2-.2.3-.4.5.1,0,.3,0,.5,0s0,0,0,0c-.1-.1-.2-.3-.2-.4h0ZM148.8,90.2h1c0-.2-.2-.5-.4-.8-.1-.3-.2-.6-.3-.8-.2.4-.4,1-.7,1.6.2,0,.3,0,.4,0Z"/>
        </g>
        <g>
          <path class="cls-2" d="M158.1,87.6c-.2,0-.4,0-.5,0-.6,0-1.1.1-1.4.4-.3.2-.4.5-.5.6,0,0,0,.1-.1.1s0,0,0,0c0-.3,0-.7.2-1.3.1,0,.2,0,.3,0,.2,0,.5,0,.9,0,.4,0,1,0,1.9,0s1.4,0,1.7,0c.2,0,.6,0,1,0,0,.2,0,.4,0,.6,0,.2,0,.4,0,.5,0,0,0,0,0,0,0,0,0,0,0,0s0,0,0,0,0,0-.2-.2c-.2-.2-.3-.4-.5-.5s-.3-.2-.5-.2c-.2,0-.6,0-1.2,0,0,.4,0,.9,0,1.4,0,1.7,0,2.7.1,3,0,.3.4.5.9.5s.2,0,.2,0,0,0-.2,0h-2.7c0,0-.1,0-.1,0s0,0,.2,0c.2,0,.4,0,.6-.2s.2-.3.2-.5c0-.2,0-.8,0-1.7s0-1.6,0-2.4Z"/>
          <path class="cls-2" d="M160,92.8h-2.7c-.2,0-.3-.1-.3-.2s0-.2.4-.2.3,0,.4-.1c.1,0,.2-.2.2-.4,0-.2,0-.8,0-1.7s0-1.5,0-2.3c-.1,0-.3,0-.3,0-.6,0-1,.1-1.3.3-.3.3-.4.4-.4.5,0,.1-.1.2-.3.2s-.1,0-.2,0h0c0,0,0-.1,0-.1,0-.3,0-.7.2-1.3h0c0-.1.1-.1.1-.1.1,0,.2,0,.3,0,.2,0,.5,0,.9,0,.4,0,1.1,0,1.9,0s1.4,0,1.7,0c.2,0,.6,0,1,0h.2c0,.3,0,.5,0,.8,0,.2,0,.4,0,.5,0,0,0,0,0,0,0,.2-.1.3-.3.3s-.2,0-.2,0c0,0,0,0-.2-.3-.1-.2-.3-.3-.4-.4-.1,0-.3-.2-.5-.2-.2,0-.5,0-1,0,0,.4,0,.7,0,1.2,0,1.7,0,2.7.1,3,0,0,0,.3.7.3s.4.2.4.2,0,.3-.3.3ZM160,92.6h0ZM158,92.4h1.2c-.2-.1-.2-.3-.3-.4,0-.3-.1-1.3-.1-3.1s0-1,0-1.4c-.2,0-.4,0-.6,0,0,.8,0,1.6,0,2.4s0,1.6,0,1.8c0,.2-.1.4-.3.6s0,0,0,0ZM160.6,87.6c.1,0,.2,0,.3.2.2.1.4.3.5.5,0,0,0,0,0,0,0,0,0-.2,0-.3,0-.2,0-.3,0-.4-.3,0-.6,0-.8,0ZM155.9,87.6c0,.2,0,.5-.1.6,0-.1.2-.2.4-.4.1-.1.3-.2.5-.3-.2,0-.5,0-.6,0s0,0-.1,0Z"/>
        </g>
        <g>
          <path class="cls-2" d="M169.7,87.4c0,.3.2.7.2,1.2,0,0,0,0,0,0s0,0,0,0c-.2-.3-.4-.5-.6-.7-.2-.2-.4-.3-.6-.3-.2,0-.5,0-1,0s-.8,0-1,0c0,0,0,0,0,.1s0,0,0,0c0,.2,0,.8,0,1.7s0,0,0,.2c.2,0,.4,0,.5,0,.4,0,.6,0,.8-.1.2,0,.3-.3.4-.6,0,0,0,0,0,0,0,0,0,0,0,.1v.2c0,.2,0,.4,0,.7,0,.4,0,.7,0,1,0,0,0,.1,0,.1s0,0,0,0c0-.3-.2-.5-.4-.7-.2-.1-.6-.2-1.3-.2,0,.2,0,.5,0,.9s0,.9,0,1.1c0,.2.1.3.3.4.2,0,.4.1.8.1,1.1,0,1.9-.4,2.2-1.1,0,0,0-.1.1-.1s0,0,0,0,0,0,0,.1c0,0,0,.2-.1.6,0,0,0,.3-.2.6h-1.8c-.3,0-.6,0-1.2,0-.5,0-1,0-1.4,0-.4,0-.6,0-.6,0s0,0,0,0c0,0,0,0,.1,0,.3,0,.5,0,.6-.2.1-.2.2-.5.2-1.1v-.8s0-.8,0-.8c0-.2,0-.4,0-.9,0-.4,0-.7,0-.7,0,0,0-.1-.1-.2,0,0-.2-.1-.5-.2,0,0-.1,0-.1,0s0,0,.2,0h.9c.3,0,1.1,0,2.3,0s1.2,0,1.2,0Z"/>
          <path class="cls-2" d="M170.1,92.8h-2c-.3,0-.7,0-1.2,0-.5,0-1,0-1.3,0-.6,0-.7,0-.7,0,0,0,0-.1,0-.2s0-.3.3-.3.4,0,.5-.2c0,0,.1-.3.1-1v-.8s0-.8,0-.8c0-.1,0-.4,0-.9,0-.6,0-.7,0-.7,0,0,0,0,0,0,0,0-.1,0-.4-.1-.2,0-.2-.2-.2-.3s0-.2.3-.2h.9c.3,0,1.1,0,2.3,0s1.2,0,1.3,0h.1s0,.1,0,.1c0,.3.2.7.3,1.3h0c0,0,0,.1,0,.1,0,0-.1.1-.2.1s-.1,0-.2,0c-.2-.3-.4-.5-.6-.7-.2-.1-.3-.2-.5-.3-.1,0-.4,0-.9,0s-.6,0-.9,0c0,0,0,0,0,.1,0,.2,0,.8,0,1.7.1,0,.2,0,.3,0,.4,0,.6,0,.7-.1,0,0,.2-.2.4-.6,0-.2.2-.2.2-.2.1,0,.3,0,.3.3v.2c0,.2,0,.4,0,.6,0,.4,0,.7,0,1,0,.2-.1.3-.3.3s-.2,0-.2-.2c0-.3-.2-.5-.3-.6,0,0-.3-.2-1-.2,0,.2,0,.4,0,.8,0,.7,0,.9,0,1,0,.1.1.2.2.3,0,0,.3.1.8.1,1.1,0,1.7-.3,2-1,0-.2.2-.2.3-.2s.2.1.2.3,0,.1,0,.2c0,0,0,.1-.1.5,0,0,0,.3-.2.6h0ZM169.1,92.5h.8c0-.3.1-.4.1-.5,0,0,0,0,0-.1-.2.3-.5.5-.9.6ZM165.8,92.4c.3,0,.7,0,1.1,0-.2-.1-.3-.2-.3-.4,0-.1,0-.3,0-1.1s0-.8,0-.9h0c0-.1,0-.2,0-.2,0,0,0-.1,0-.2,0-1,0-1.5,0-1.7,0,0,0,0,0,0,0,0,0-.2,0-.2-.2,0-.3,0-.4,0h-.3s0,0,0,0c.1,0,.2.2.2.3,0,0,0,.1,0,.8,0,.4,0,.7,0,.9v.8s0,.8,0,.8c0,.9-.1,1.1-.2,1.2,0,0,0,0,0,.1ZM167.7,89.9c.1,0,.2,0,.3.1,0,0,.2.2.3.3,0-.1,0-.3,0-.5s0-.2,0-.3c0,.1-.2.2-.3.3,0,0-.2,0-.3.1ZM169,87.6c.1,0,.3.2.4.3.1,0,.2.2.3.3,0-.2,0-.4-.1-.6-.1,0-.4,0-.6,0Z"/>
        </g>
        <g>
          <path class="cls-2" d="M177,89.8c.5.1.9.3,1.2.5.3.2.4.5.4.9s-.2.7-.5,1c-.3.3-.8.5-1.5.5s-.3,0-.6,0c-.2,0-.3,0-.3,0-.9,0-1.5,0-1.8,0-.1,0-.2,0-.2,0s0,0,0,0c0,0,.1,0,.3,0,.1,0,.2,0,.3-.1,0,0,.1-.2.2-.4,0-.2,0-.5,0-1s0-.8,0-1c0-.3,0-.5,0-.6,0-.4,0-.8,0-1.1,0-.3,0-.4-.2-.5,0,0-.2-.1-.4-.2,0,0-.1,0-.1,0s0,0,.1,0h.8c.3,0,.5,0,.7,0,.5,0,.8,0,1,0,.5,0,1,.1,1.3.3.3.2.5.5.5.9s-.1.5-.3.8-.6.4-1,.5ZM175.5,90c0,0,0,.2,0,.3v1.2c0,.4,0,.7,0,.7,0,0,.1,0,.3.1s.4,0,.7,0,.5,0,.7-.1c.2,0,.3-.2.5-.4s.2-.5.2-.7c0-.4-.1-.7-.4-.9-.3-.2-.7-.3-1.2-.3s-.4,0-.6,0ZM175.5,87.6c0,.6,0,1.1,0,1.4v.6c0,0,0,.1,0,.2s0,0,.2,0c.6,0,1,0,1.3-.3.3-.2.5-.5.5-.9s-.1-.6-.4-.8c-.2-.2-.6-.3-.9-.3s-.5,0-.7.1Z"/>
          <path class="cls-2" d="M176.6,92.8c-.1,0-.3,0-.6,0-.2,0-.3,0-.3,0-.9,0-1.5,0-1.8,0h0c-.3,0-.3-.2-.3-.2,0,0,0-.2.2-.2,0,0,0,0,.4,0,0,0,.1,0,.2,0,0,0,0,0,.1-.3,0-.2,0-.5,0-1s0-.8,0-1c0-.3,0-.5,0-.6,0-.4,0-.8,0-1,0-.3-.1-.4-.1-.4,0,0,0,0-.3-.1-.3,0-.3-.2-.3-.3s0-.2.3-.2h.8c.3,0,.5,0,.7,0,.5,0,.8,0,1,0,.6,0,1,.1,1.4.4.4.2.5.6.5,1s-.1.6-.4.9c-.1.1-.3.3-.6.4.3.1.6.3.8.4.3.3.5.6.5,1s-.2.8-.6,1.1c-.4.3-.9.5-1.6.5ZM173.9,92.5h0ZM174.6,87.5h0c0,.1.2.3.2.6,0,.3,0,.6,0,1.1s0,.3,0,.6c0,.3,0,.6,0,1s0,.8,0,1c0,.3-.1.4-.2.5,0,0,0,0,0,0,.2,0,.5,0,.8,0,0,0,0,0,0,0,0,0,0-.2,0-.8v-1.2c0-.2,0-.3.1-.4h0c0,0,0-.2,0-.3v-.6c0-.4,0-.9,0-1.4h0c-.1,0-.3,0-.5,0h-.3ZM177.4,90.1s0,0,0,0c.3.2.5.6.5,1.1s0,.6-.2.8c0,.1-.2.3-.3.3.3,0,.5-.2.6-.3.3-.3.4-.6.4-.9s-.1-.5-.3-.7c-.2-.1-.4-.3-.7-.4ZM175.6,92.2s0,0,.1,0c.1,0,.3,0,.6,0s.5,0,.6,0c.1,0,.3-.2.4-.4.1-.2.2-.4.2-.6,0-.4-.1-.6-.3-.8-.3-.2-.9-.3-1.6-.3,0,0,0,0,0,.2v1.2c0,.5,0,.6,0,.6,0,0,0,0,0,0ZM175.6,89.6s0,0,0,0c.5,0,.9,0,1.2-.3.3-.2.4-.4.4-.8s0-.5-.3-.7c-.3-.2-.8-.3-1.4-.2,0,.5,0,.9,0,1.3v.6s0,0,0,0ZM177.1,87.5s0,0,.1,0c.3.2.4.5.4,1s-.1.7-.3.9c.2,0,.4-.2.5-.3.2-.2.3-.4.3-.6s-.1-.6-.4-.7c-.2-.1-.4-.2-.6-.2Z"/>
        </g>
        <g>
          <path class="cls-2" d="M184.7,87.3h.2c.3.6.8,1.6,1.3,3.1.4.9.6,1.5.8,1.7s.4.3.7.4c0,0,.1,0,.1,0s0,0,0,0h0c-.3,0-.6,0-1,0-.6,0-1,0-1.2,0,0,0-.1,0-.1,0s0,0,.1,0c.2,0,.4,0,.5-.1,0,0,.1-.1.1-.3s0-.4-.3-.9l-.3-.7c-.2,0-.8,0-2,0-.3.7-.5,1.2-.5,1.4s0,.3.2.4c.1,0,.3.1.4.1.1,0,.2,0,.2,0s0,0,0,0c-.5,0-.7,0-.8,0-.5,0-.8,0-1,0,0,0-.1,0-.1,0s0,0,.1,0c.3,0,.6-.2.8-.6.2-.4.5-1,.8-2,.3-.9.7-1.7,1.1-2.5ZM184.5,88.2c-.3.5-.6,1.2-1,2.2.3,0,.5,0,.6,0h1.2c-.1-.3-.3-.6-.5-1.1-.2-.5-.4-.9-.5-1.1Z"/>
          <path class="cls-2" d="M187.8,92.8h0c-.3,0-.6,0-1,0-.6,0-1,0-1.2,0h0c-.3,0-.3-.2-.3-.2s0-.2.3-.2c.3,0,.4,0,.5,0,0,0,0,0,0-.1s0-.2-.3-.8l-.2-.6c-.3,0-.9,0-1.8,0-.3.8-.4,1.1-.4,1.2s0,.2.1.2c.1,0,.2.1.4.1.3,0,.3.2.3.3s0,.1-.2.2h0s0,0,0,0c-.5,0-.7,0-.8,0-.5,0-.8,0-1,0h0c-.3,0-.3-.2-.3-.2s0-.2.3-.3c.3,0,.5-.2.6-.5.2-.4.5-1,.8-2,.3-.9.7-1.7,1.1-2.6h0c0,0,.4,0,.4,0h0c.3.7.8,1.7,1.4,3.2.4.9.6,1.5.7,1.7.1.2.3.3.5.3.3,0,.3.2.3.3,0,.1,0,.2-.2.2ZM183.8,92.7h0ZM186.7,92.4c.1,0,.3,0,.4,0,0,0-.1-.1-.2-.2-.1-.2-.4-.8-.8-1.8-.5-1.4-1-2.4-1.3-3,0,.1-.1.3-.2.4v.2c.2.2.3.6.6,1.1.2.5.3.8.5,1.1v.2c0,0,0,0,0,0l.3.7c.2.6.3.8.3.9s0,.2-.1.3c.2,0,.3,0,.5,0ZM182.9,92c0,.2-.2.3-.4.5.1,0,.3,0,.5,0s0,0,0,0c-.1-.1-.2-.3-.2-.4h0ZM184.2,90.2h1c0-.2-.2-.5-.4-.8-.1-.3-.2-.6-.3-.8-.2.4-.4,1-.7,1.6.2,0,.3,0,.4,0Z"/>
        </g>
        <g>
          <path class="cls-2" d="M192.8,90c.3-.2.5-.3.7-.5.2-.2.4-.4.8-.7.3-.3.6-.6.6-.7s.1-.2.1-.2,0-.1-.1-.2c0,0-.2,0-.3,0-.1,0-.2,0-.2,0s0,0,.1,0,0,0,0,0c.1,0,.4,0,1,0s.6,0,.8,0c.1,0,.2,0,.2,0s0,0-.1,0c-.3,0-.5.1-.7.2s-.5.3-.9.7c-.4.4-.8.7-1.1,1.1.3,0,.6,0,.9.1s.4.2.6.4c.2.2.3.6.4,1.1.2.8.5,1.3,1,1.3.1,0,.2,0,.2,0s0,0,0,0h-.4c-.6,0-.9,0-1,0-.1-.2-.2-.3-.3-.5s-.1-.5-.2-.9c0-.4-.2-.7-.3-1-.1-.3-.4-.5-.7-.5s-.4,0-.6.2c-.2.1-.3.2-.4.3,0,0,0,.4,0,1.1s0,.7,0,.8c0,.1,0,.2.2.3.1,0,.2,0,.4.1.1,0,.2,0,.2,0s0,0-.1,0h0c0,0-.4,0-.9,0s-1,0-1,0c0,0,0,0,0,0,0,0-.1,0-.1,0s0,0,.1,0c.2,0,.3,0,.3-.1,0,0,.1-.1.1-.2,0,0,0-.3,0-.8,0-.4,0-.8,0-1.1s0-.7,0-1c0-.3,0-.6,0-.9,0-.3,0-.5,0-.6,0,0,0-.1-.1-.2s-.2,0-.4,0c0,0-.1,0-.1,0,0,0,0,0,.2,0h.4s1.6,0,1.6,0c0,0,.1,0,.1,0s0,0,0,0c0,0-.1,0-.2,0-.1,0-.2,0-.3,0,0,0,0,0-.1.1s0,.1,0,.3c0,.3,0,1,0,2Z"/>
          <path class="cls-2" d="M191.4,92.8c-.2,0-.3-.1-.3-.2s0-.2.3-.3c.2,0,.2,0,.3,0,0,0,0,0,0-.1,0,0,0-.2,0-.8,0-.4,0-.8,0-1.1s0-.7,0-1c0-.3,0-.6,0-.9,0-.4,0-.5,0-.5,0,0,0,0,0,0,0,0,0,0-.3,0-.3,0-.3-.2-.3-.2,0,0,0-.3.4-.3h1.9c.2,0,.3.1.3.2s0,.2-.1.2c0,0,0,0-.3,0-.2,0-.2,0-.2,0,0,0,0,0,0,0,0,0,0,0,0,.2,0,.3,0,.8,0,1.7.2-.1.3-.2.4-.3.2-.2.4-.4.8-.7.4-.4.6-.6.6-.6,0,0,0-.1,0-.2,0,0,0,0,0,0,0,0-.1,0-.2,0-.3,0-.3-.2-.3-.3s0-.2.3-.2,0,0,0,0c.1,0,.4,0,1,0s.6,0,.8,0c0,0,.4,0,.4.2s0,.2-.3.3c-.3,0-.5,0-.7.2-.2,0-.5.3-.9.7-.3.3-.6.5-.8.8.2,0,.4,0,.5.1.3,0,.5.3.7.5.2.2.3.6.4,1.1.2.8.5,1.2.9,1.2.3,0,.3.2.3.3s0,.2-.3.2h-.4c-.7,0-.9,0-1,0h0s0,0,0,0c-.2-.2-.3-.4-.3-.6,0-.2-.1-.5-.2-.9,0-.3-.2-.7-.3-1-.1-.2-.3-.4-.5-.4s-.4,0-.6.2c-.3.1-.3.2-.3.2,0,0,0,.2,0,1s0,.7,0,.8c0,0,0,.1.1.1,0,0,.2,0,.3,0,.3,0,.3.2.3.3,0,.1,0,.2-.3.2h0c0,0-.4,0-.9,0-.8,0-1,0-1,0,0,0,0,0-.1,0ZM196.7,92.6h0ZM194.3,89.7c.1,0,.3.2.3.4.2.3.3.7.3,1.1,0,.5.1.7.2.9,0,.1,0,.2.2.4.1,0,.3,0,.7,0-.3-.2-.5-.6-.6-1.2-.1-.5-.2-.8-.4-1-.1-.2-.3-.3-.5-.4,0,0-.1,0-.2,0ZM191.9,87.5s0,0,.1.2c0,0,0,.2.1.6,0,.3,0,.6,0,.9,0,.3,0,.6,0,1s0,.7,0,1.1c0,.7,0,.8,0,.8,0,0,0,.2-.1.2.1,0,.3,0,.6,0s.2,0,.3,0c0,0-.2-.2-.2-.3,0,0,0-.3,0-.9s0-1,0-1.1v-.2c0-1.1,0-1.7,0-2s0-.3,0-.4c0,0,0,0,0,0h-.8ZM195,87.5c.1,0,.1.2.1.3s0,.1,0,.2c.3-.2.5-.4.6-.4s0,0,0,0h-.2c-.2,0-.4,0-.6,0ZM194.5,87.3h0Z"/>
        </g>
        <g>
          <path class="cls-2" d="M200.2,90c0-.4.1-.8.4-1.2.2-.4.6-.8,1-1.1s1-.4,1.6-.4,1.5.3,2,.8.8,1.1.8,1.8-.3,1.4-.9,1.9c-.6.6-1.3.9-2.1.9s-1.4-.2-2-.7c-.5-.5-.8-1.2-.8-2ZM201.2,89.8c0,.4,0,.9.2,1.3s.4.8.7,1c.3.2.6.3,1,.3.6,0,1-.3,1.4-.8.3-.5.5-1.1.5-1.8s-.2-1.2-.5-1.7c-.4-.5-.8-.7-1.4-.7s-.8.1-1.1.4c-.3.3-.5.6-.6.9-.1.4-.2.7-.2,1Z"/>
          <path class="cls-2" d="M203,92.9c-.8,0-1.5-.3-2.1-.8-.6-.5-.9-1.2-.9-2.1s.1-.8.4-1.3c.2-.5.6-.8,1.1-1.1.5-.3,1-.4,1.6-.4s1.6.3,2.1.8c.6.6.8,1.2.8,1.9s-.3,1.5-.9,2.1c-.6.6-1.4.9-2.2.9ZM201.8,87.8c0,0-.1,0-.2,0-.4.3-.8.6-1,1-.2.4-.3.8-.3,1.1,0,.8.2,1.4.7,1.8.3.3.6.5,1,.6,0,0,0,0-.1,0-.3-.2-.6-.6-.8-1.1-.2-.5-.2-.9-.2-1.4s0-.7.2-1.1c.1-.4.4-.7.6-1ZM203.1,87.7c-.4,0-.7.1-1,.3-.3.2-.5.5-.6.9-.1.3-.2.7-.2.9,0,.4,0,.8.2,1.3.1.4.3.7.6.9.3.2.6.3.9.3.5,0,.9-.2,1.2-.7.3-.5.5-1,.5-1.7s-.2-1.1-.5-1.6c-.3-.4-.7-.7-1.2-.7ZM204.1,87.6c.2.1.4.3.5.5.4.5.6,1.1.6,1.8s-.2,1.3-.5,1.9c-.1.2-.2.3-.3.4.3-.1.5-.3.7-.5.5-.5.8-1.1.8-1.8s-.2-1.2-.7-1.7c-.3-.3-.6-.5-1-.6Z"/>
        </g>
      </g>
      <g>
        <path class="cls-2" d="M117.2,27.8c.5,0,2.4-1.4,3.9-2.7,0,0,0,0,.1,0h.2c.4,0,.5-.2.5-.3s0-.1,0-.2c-.2-.3-1-.8-1.2-.8s-.2,0-.2.2c-.3.8-2.1,2.8-3.1,3.5-.3.2-.3.3-.3.3s0,.2.2.2Z"/>
        <path class="cls-2" d="M130.6,24.8c0,0-.2,0-.5.4,0,0,0,0,0,0h-1.4c-.3-.2-1.2-.6-1.4-.7h0c0,0-.1,0-.2,0h-.2v.2s0,0,0,.1c.1.5.2,1.9.2,2.3v1c0,0,0,.2,0,.2-.1-.3-.6-.7-1-.9h0c0,0-.2,0-.3,0h0c-.1.2-.3.4-.4.6,0,0,0,0,0,0h-.4c0-.8,0-1.3,0-1.4,0,0,0,0,0,0,.1,0,.2-.2.2-.3s0,0,0,0h1.3c.4,0,.4-.2.4-.3,0-.4-.9-1-1.2-1s-.6.5-.7.6c0,0,0,0,0,0h-1.4c.2-.4.4-.8.7-1.2h0q0-.2.1-.2c.3,0,.5-.2.5-.4,0-.4-1.4-.8-1.5-.8-.2,0-.2.2-.2.3,0,.5-.4,1.8-1,2.9-.2-.2-.6-.4-.8-.6,0,0-.1,0-.1,0,0,0-.1,0-.1,0,0,0-.1,0-.2.2h0c-.2,1-3,3.9-4.1,4.7-.2.2-.3.3-.3.3v.2h.2c.2,0,1-.3,2.6-1.7,0,.3,0,.7,0,.8,0,1.1-.2,3.6-.3,5.1h0c0,.5.2.7.6.7s.8-.3.8-.7v-.6c0-1.5,0-3.7.1-5.1q0-.4.3-.5c.2,0,.4-.2.4-.4,0-.2-.2-.3-.6-.4.4-.4.8-.8,1.1-1.1h0q.1-.2.2-.2s0,0,0,0c-.1.2-.3.4-.4.6-.2.2-.2.3-.2.4s0,0,0,0c0,0,0,0,0,0h-.2s0,.1,0,.1c0,.2.4.8.8.8h0c1,0,1.4-.1,1.9-.1v4.1c-.2,0-.5.1-.7.2h0s0-.6,0-.6c0-.7,0-1.3,0-1.7,0,0,0,0,.1-.1.3-.1.4-.3.4-.4,0-.5-1.6-.6-1.6-.6-.2,0-.2.1-.2.2s0,0,0,.1c0,.3.1.9.1,1.4,0,.5,0,.8,0,1,0,.3,0,.6,0,1,0,0,0,0,0,0,0,0,0,0-.1,0-.2,0-.5,0-.8,0-.1,0-.3,0-.4,0-.2,0-.2,0-.2.2,0,.2.7,1.2,1,1.2s.2,0,.2-.1c0,0,0,0,.1,0,.8-.3,4.9-1.8,5.6-2.3,0,1.1,0,2.1,0,2.9h0c0,.5.3.6.6.6s.4,0,.6-.3c.1-.1.2-.3.2-.4,0-.8,0-1.7,0-2.5,0,0,0,0,.1,0,.3.2.7.4.8.6,0,.2.2.3.4.3h0c.8,0,1.6-.5,1.6-1.3v-1.4c0-.7,0-2.2,0-3.2s0-.9,0-1.1q0-.3.2-.4s0,0,.2,0c.2-.1.4-.3.4-.4,0-.4-1.3-.9-1.4-.9ZM128.3,26.8v-.2c0-.5,0-.5.2-.6h1.5s0,0,0,0c0,0,0,0,0,0,0,.5,0,2.4,0,3.9s0,1.8,0,2.2c0,.1,0,.3-.5.3s-.6,0-1-.1h-.1c0,0,0,0-.1,0,0-.7,0-1.4,0-2,0-1.1,0-2.2,0-3.4ZM123.7,27.5v.7c-.7,0-1.3,0-2.1-.1.3-.2.9-.8,1.5-1.6h.6c0,.3,0,.6,0,1.1ZM116.6,30.7h0c0,0,0,0,0,0h0c0,0,0,0,0,0ZM127.1,32c0,0-.2,0-.4,0-.5.2-1.2.4-1.9.6v-1.7h1.7c.3,0,.4-.2.4-.3s0-.1,0-.2c-.2-.3-.7-.7-1-.8,0,0-.1,0-.1,0-.2,0-.5.4-.7.7,0,0,0,0,0,0h-.2v-1.4h1.9c.2,0,.3,0,.4-.2,0,.7,0,1.4,0,2.1s0,.9,0,1.3Z"/>
        <path class="cls-2" d="M148.8,33.7c-.1,0-.4.1-1.1,1h0c0,0-.1.1-.2.1h-3.3c0-.3,0-.7,0-1.1h4.1c.4,0,.5-.2.5-.3,0-.3-.8-1-1.3-1.2,0,0,0,0,.1,0,.1-.1.2-.3.1-.4,0-.9-.1-1.8-.1-2.4s0-.6.2-.8c.2,0,.5-.2.5-.5,0-.5-1.3-1-1.4-1s-.2,0-.3,0c0,0-.1.1-.2.2s0,0-.1.1c0,0,0,0,0,0h-2c0-.4,0-.7,0-1h5.7c.4,0,.5-.2.5-.3,0-.3-.9-1.2-1.4-1.4h0c0,0-.1,0-.2,0-.1,0-.3,0-1,1h0c0,0-.1.1-.2.1h-3.3s0,0,0,0c0,0,0-.1,0-.2q0-.5.2-.6c.2,0,.3-.2.3-.3.8,0,1.5-.2,2.1-.3h0c.1,0,.2,0,.3,0,.1,0,.2,0,.3,0,.2,0,.3-.2.3-.3,0-.4-.8-1.2-.8-1.2h0c0,0-.1-.1-.2-.1s-.1,0-.2,0h0c-.2.1-.4.3-.8.4-1.7.4-5.2.9-7.3,1-.3,0-.4.1-.4.2,0,.3.4.3,1.8.3s2,0,3.1-.1c0,.3,0,.6,0,.9h-.3c-.9,0-4,0-5.5-.2h-.2s0,.1,0,.1c0,.3.5.9.9.9h0c1.4-.1,3.9-.2,4.7-.2h.4v1h-1.7c-.4-.2-1.4-.6-1.5-.6s-.2,0-.2.2h0c0,0,0,0,0,0,0,.2.2,1.2.2,2.3s0,1.6-.1,2.7h0c0,.3.2.5.6.5s.5,0,.6-.3c0,0,.1-.2.1-.3,0,0,0-.2,0-.3,0,0,0,0,0-.1h2c0,.4,0,.9,0,1.3-.9,0-2.9,0-4.3-.2h-.2s0,.1,0,.1c0,.3.5.9.9.9h0c1.4-.1,2.9-.2,3.6-.2h0c0,.2,0,.4,0,.5,0,.2,0,.3,0,.5h-.8c-.8,0-3.6,0-5.2-.2h-.2s0,.1,0,.1c0,.3.5.9.9.9h0c1.3-.1,3.4-.2,4.3-.2h7.9c.4,0,.5-.2.5-.3,0-.4-1.2-1.4-1.7-1.4ZM144.1,29.3v-1.1h2.1s0,0,0,0c0,.3,0,.7,0,1.1h-2.2ZM146.1,33s-.1,0-.2,0h-1.8c0-.2,0-.4,0-.6,0-.2,0-.4,0-.6h2.2c0,.3.2.5.5.5-.3.3-.6.7-.6.7ZM144.1,31.2v-1.2h2.2v1.2h-2.2ZM141.1,28.3s0,0,0,0h1.8v1.1h-2.1c0-.9,0-1,.2-1.1ZM143,30c0,.2,0,.4,0,.6,0,.2,0,.4,0,.6h-2c0-.4,0-.8,0-1.2h2.1ZM146.8,23.3s0,0,0,0h0s0,0,0,0Z"/>
        <path class="cls-2" d="M168.7,33.6c-.3,0-.8.8-.9.9,0,0-.1,0-.1,0h-2.7v-1.3h2.8c.4,0,.5-.2.5-.3,0-.4-.9-1.1-1.3-1.2h0s0,0-.1,0c0,0-.2,0-.9.9,0,0,0,0-.1,0h-.8v-.2q0-.3.1-.4s.1,0,.2,0c.1,0,.3-.2.3-.3,0-.4-1-.5-1.5-.6,1-.1,2.1-.3,3.1-.5.2.2.3.3.5.5.2.3.5.4.6.4.4,0,.6-.3.6-.7,0-1.3-3.2-2-3.6-2s-.2,0-.2.2,0,.2.2.2c.4.2.8.5,1.2.8-1.2.1-2.1.2-3,.2.3-.4.6-.9.8-1.2h0c0-.1,0-.2.1-.2.3,0,.5-.2.5-.3h3.4c.4,0,.4-.2.4-.3,0-.4-1-1.1-1.4-1.1s-.3.1-.9.7c0,0,0,0,0,0h-2c-.8,0-2.8,0-3.9-.2h0c0-.3,0-.6,0-.9h0c0,0,6.9,0,6.9,0h0c0,.4.2.6.6.6s.6-.2.7-.3c.1-.1.2-.3.2-.4,0,0,0-.2,0-.3,0-.3,0-.6,0-.8s0-.2.3-.4c.2-.1.4-.2.4-.5,0-.5-1.3-1-1.3-1,0,0-.2,0-.2,0-.2,0-.3.1-.6.5h0s0,0-.1,0h-6.4c-.4-.2-1.5-.6-1.7-.6s-.2,0-.2.2,0,0,0,.1c.2.6.3,2.4.3,3.6,0,3.4-1,5.8-3.1,7.2-.4.3-.4.3-.4.5s0,.2.2.2.4-.1.5-.2c3.1-1.6,3.9-4.6,4.1-7.1.1.3.5.6.8.6h0c.4,0,1.2,0,1.9-.1,0,.4-.2.9-.5,1.7-.3,0-.7,0-1,0h0c-.2,0-.7,0-1.1-.1h-.1c-.1,0-.2,0-.2.2s0,0,0,.1c0,0,.4,1.2.8,1.2s.2,0,.2,0c0,0,0,0,.1,0h.3c.7-.1,1.3-.2,2-.3,0,0,0,0,0,0,0,0,0,0,0,.1,0,.4.1.9.2,1.3-1.4,0-2.5-.1-3.4-.2h-.2s0,.1,0,.1c0,.3.5.9.9.9h0c.9,0,1.9-.1,2.6-.1,0,.2,0,.4,0,.7s0,.4,0,.6h-.2c-.9,0-3.5,0-5-.2h-.2s0,.1,0,.1c0,.3.5.9.9.9h0c1.3-.1,3.2-.2,4.2-.2h6.3c.4,0,.5-.2.5-.3,0-.4-1.2-1.3-1.6-1.3ZM167.3,24.8v1.2h-6.9v-.3c0-.8,0-.8.2-.9h.1c0,0,6.5,0,6.5,0,0,0,0,0,0,0Z"/>
      </g>
      <g>
        <g>
          <path class="cls-2" d="M131.3,62.6c0,3.5,0,7.3,0,9.4h-2c-2.2,0-9.5-.1-13.5-.6h-.2s0,.2,0,.2c0,.5,1.2,2,2,2h0c3.5-.3,9.4-.4,11.4-.4h20.2c1,0,1.1-.5,1.1-.7,0-.6-2-2.7-3.5-3.2-.1,0-.2,0-.4,0-.2,0-.4,0-.5.2-.6.6-1.6,1.7-2.1,2.3,0,.1-.3.2-.5.2h-9.1c0-2.1,0-5.8,0-9.4s.6-1.3,1.3-1.3h10.1c.8,0,.9-.4.9-.7,0-.7-2.2-2.6-3.3-3.1-.1,0-.3,0-.4,0s-.3,0-.5.1c-.3.3-1,1-1.5,1.6-.2.2-.4.5-.5.6s-.3.2-.4.2h-4.5c-.7,0-1.4-.6-1.3-1.4,0-2.2,0-3.9,0-4.6v-.3q0-1.7.8-2c.4-.2.7-.5.7-.7s0-.2-.1-.3h12.7c.9,0,1-.5,1-.7,0-.8-2.7-2.9-3.4-3.2h0s0,0,0,0c0,0,0,0-.2,0-.9,0-2.7,2.5-2.7,2.5,0,.1-.3.2-.4.2h-11.5c-2.1,0-9.8-.1-13.7-.5h-.2v.2c0,.5,1.2,1.9,2,1.9h0c3.7-.3,10-.4,11.7-.4h.4c.2,1,.3,2.3.3,4v3.9c0,.8-.6,1.4-1.4,1.3-2.9,0-7.6-.2-10.4-.6h-.2s0,.2,0,.2c0,.6,1.2,2,1.9,2h0s8.6-.3,8.6-.3c.8,0,1.4.6,1.4,1.3Z"/>
          <path class="cls-2" d="M176.9,57.2c.7,0,1.3.5,1.4,1.2s.2,1.3.2,2c0,1-.8,1.9-1.8,1.9h-2.8c-2.3,0-9.2-.1-13.2-.5h-.2v.2c0,.6,1.2,2,2,2h0c3.4-.3,9.1-.4,11.1-.4h2.8c1.1,0,1.9,1,1.8,2-.8,6.3-4.1,7.3-6.1,7.3s-1.5-.1-2.4-.4c-.4-.1-.9-.2-1.1-.2s-.3.2-.3.2c0,.2.2.4,2.6,1.6.9.5,2.2,1.1,2.3,1.3.3.3.6.4.8.4,1.9,0,6.5-1.9,7.1-10.3,0-1.1,1-1.9,2-1.9h10.6c.9,0,1-.4,1-.6,0-.9-2.9-3.4-3.9-3.4s-2.3,2.1-2.6,2.6c0,.1-.3.2-.5.2h-4.9c-.9,0-1.7-.7-1.8-1.7,0-.7-.2-1.3-.3-2-.1-.8.4-1.4,1.2-1.4h10.6c.9,0,1-.5,1-.6,0-.6-1.9-2.6-3.4-3-.1,0-.3-.1-.4-.1s-.6,0-2.4,2.2h0c-.1.2-.3.3-.5.3h-5.4c-.8,0-1.6-.5-1.9-1.3-.7-1.7-1.7-3.1-2.7-4.1,3.2-.3,6.1-.6,8.5-1.1,0,0,.1,0,.2,0,.2,0,.5,0,.6.1.2.1.5.2.8.2.6,0,.7-.4.7-.6,0-.8-2.2-2.9-2.6-2.9s-.2,0-.2.1c0,0,0,0,0,0-.7.5-1.4.8-2.1,1-4.4,1.1-11.7,2.3-17.3,2.7-.3,0-.8,0-.8.4s.8.5,2,.5c2.2,0,4.7,0,7.4-.3,0,.4.3.7.6.7s.2,0,.3,0h.1c0,0,0,0,.1,0,.7,0,1.5,1.2,2.1,3.1s-.3,1.5-1.1,1.5l-14-.5h-.2s0,.2,0,.2c0,.6,1.3,2,2.1,2h0s12.7-.4,12.7-.4Z"/>
          <path class="cls-2" d="M204.7,57c.5,0,4.1-2,7.9-6.4h8.4c.9,0,.9-.4.9-.5,0-.8-2.3-2.9-3.2-2.9s-2.1,2-2.1,2c0,.1-.3.2-.3.2h-2.8c.2-.3.4-.6.7-.9.1-.2.3-.4.4-.6q.3-.4.8-.4c.3,0,1.4,0,1.4-.7,0-1-3.7-2.3-4.1-2.3s-.3.2-.3.5h0c-.2,2.9-5.2,9.1-7.6,11.1-.1.1-.5.4-.5.6s.1.3.3.3Z"/>
          <path class="cls-2" d="M228.1,54.8c.3.9,1,1.4,1.7,1.4s1.7-.7,1.7-1.7c0-2.5-4.4-3.4-5.1-3.4s-.3,0-.3.3,0,.3.3.5c.6.6,1.4,1.6,1.8,2.9h0Z"/>
          <path class="cls-2" d="M234.4,47h0c-.1,0-.4,0-.6,0h0c-.5.6-1.5,1.7-1.9,2.2,0,.1-.3.2-.3.2h-5.9c.4-.5.8-1,1.1-1.5.3-.4.4-.4.8-.4.6,0,1.4-.1,1.4-.6,0-.9-3.6-2.1-4-2.1s-.3.3-.3.5c-.6,3-3.5,7.6-5.6,9.5-.2.1-.4.4-.4.6s0,.2.3.2c.5,0,3.2-1.7,5.9-4.9h12.1c.8,0,.9-.4.9-.6,0-1-2.7-2.9-3.3-3.1Z"/>
          <path class="cls-2" d="M218.4,57.4c-.1,0-.3,0-.5.2-.4.3-1,1.1-1.5,1.7,0,.1-.2.2-.3.2h-.3v-1.3c.2-.8.2-.8.7-1h.2c.5-.3.8-.5.8-.8s-.1-.3-.3-.5c.5-.3.9-.9.9-1.5,0-2.3-4.3-3.3-4.8-3.3s-.3,0-.3.3,0,.3.3.5c.8,1,1.4,1.9,1.7,2.8,0,.2.1.4.2.5-.5-.1-1.3-.3-1.7-.3s-.3.1-.3.3,0,.1,0,.3c0,0,.2.9.3,4-1.4,0-4.6,0-7.5-.5h-.2s0,.2,0,.2c0,.5,1.1,1.9,1.7,1.9h0c2.4-.3,4.5-.3,6-.3v.5c-2.1,3.5-7.8,8.1-10.1,9.4-.7.3-.7.5-.7.7s0,.3.3.3c1,0,6.8-2.3,10.4-6.3-.1,2.8-.4,5.9-.7,9.7h0c0,.9.6,1.3,1.3,1.3s1-.1,1.4-.6c.2-.2.3-.5.3-.8,0-2.1,0-4,0-5.9s0-3.2,0-4.7c.7.5,1.6,1.3,2.5,2.5.6.8,1.2.9,1.5.9.7,0,1.2-.6,1.2-1.3,0-1.4-1.8-2.9-5.2-3,0-.7,0-1.3,0-1.9,0-.2,0-.5,0-.7h4.7c.6,0,.9-.3.9-.6,0-.1,0-.4-.5-.9-.6-.7-2-1.8-2.5-1.8Z"/>
        </g>
        <circle class="cls-1" cx="141" cy="66.2" r="3.2"/>
        <path class="cls-2" d="M236.2,57.1c-.6-.7-2.4-1.5-2.9-1.5s-.9.5-1.2.8v.2c-.2,0-.2.2-.5.2h-5.7c-1-.6-3.4-1.4-3.7-1.4s-.3.1-.3.3,0,.1,0,.3c.4,1.8.4,4,.4,7.6,0,5.2,0,8.9-.3,11.3h0c0,.8.5,1.2,1.2,1.2s1-.2,1.4-.6c.2-.2.3-.5.3-.8v-.5s7.2,0,7.2,0v.3c0,.7.5,1.2,1.2,1.2s1-.2,1.3-.5c.3-.3.4-.7.4-1.1-.2-2.6-.3-8.6-.3-12.1s0-1.7,0-2.1c0-.7,0-.8.6-1.1.4-.2.9-.5,1-1,0-.2,0-.3-.3-.5ZM232.2,72.7h-7.3v-3.2c0-.5.4-1,1-1h5.4c.5,0,1,.4,1,1v3.2ZM232.3,66.2c0,.5-.4,1-1,1h-5.4c-.5,0-1-.4-1-1v-2.3c0-.5.4-1,1-1h5.4c.5,0,1,.4,1,1v2.3ZM231.3,61.7h-5.4c-.5,0-1-.4-1-1s0-.5,0-.7v-1.9s7.3,0,7.3,0v2.6c0,.5-.4,1-1,1Z"/>
      </g>
      <g>
        <path class="cls-2" d="M17.7,73.6v-2.4l-7.4,5.7v15.8h86.9v-15.8l-7.4-5.7v2.4c0,1.8-1.5,3.3-3.3,3.3H21c-1.8,0-3.3-1.5-3.3-3.3Z"/>
        <path class="cls-2" d="M17.7,47.1v-2.4l-7.4,5.7v15.8h86.9v-15.8l-7.4-5.7v2.4c0,1.8-1.5,3.3-3.3,3.3H21c-1.8,0-3.3-1.5-3.3-3.3Z"/>
        <path class="cls-2" d="M97.3,39.7H10.3v-12.2c2.3,0,4.2-1.9,4.2-4.2h78.6c0,2.3,1.9,4.2,4.2,4.2v12.2Z"/>
      </g>
      <path class="cls-1" d="M82.8,68.4h-12.1c-.9,0-1.6.7-1.6,1.6v11c0,.9.7,1.6,1.6,1.6h12.1c.9,0,1.6-.7,1.6-1.6v-11c0-.9-.7-1.6-1.6-1.6ZM77,75.1h4.7c0,.4,0,1.2,0,1.9h-4.7v-1.9ZM69.5,70.1c0-.6.5-1.2,1.2-1.2h5.8v1.8h-7v-.6ZM76.5,77.4v2h-1.4v-2h1.4ZM75.1,76.9v-1.9h1.4v1.9h-1.4ZM69.5,71.1h7v1.4h-7v-1.4ZM69.5,73h7v1.6h-7v-1.6ZM69.5,77.4h1.4v2.1h-1.4v-2.1ZM72.8,82.3h-2.1c-.6,0-1.2-.5-1.2-1.2v-1.1h1.9v-2.6h1.4v4.9ZM74.6,76.9h-5.1v-1.9h5.1v1.9ZM76.5,79.9v2.4h-3.2v-4.9h1.4v2.5h1.9ZM83.9,81.1c0,.6-.5,1.2-1.2,1.2h-5.8v-1.3h7v.2ZM83.9,80.4h-7v-1.4h7v1.4ZM83.9,78.6h-7v-1.2h7v1.2ZM83.9,76.9h-1.8c0-1,0-1.6,0-1.9h1.7v1.9ZM83.9,74.6h-7v-1.6h7v1.6ZM83.9,72.5h-7v-1.4h7v1.4ZM83.9,70.7h-7v-1.8h5.8c.6,0,1.2.5,1.2,1.2v.6Z"/>
      <rect class="cls-1" x="50.7" y="23.4" width="6.3" height="69.3"/>
    </g>
  </g>
</svg>