<?xml version="1.0" encoding="UTF-8"?>
<svg xmlns="http://www.w3.org/2000/svg" version="1.1" viewBox="0 0 841.9 595.3">
  <g>
    <g>
      <g>
        <path d="M286.2,345.6l-5.4-30.9h-14.6l-5.7,30.9h5.5v1.6h-11.3v-1.6h3.5l18.8-98.3h6l18.5,98.3h3.4v1.6h-24.1v-1.6h5.2ZM273.8,274.1l-6.9,37.5h13.3l-6.4-37.5Z"/>
        <path d="M389.4,336.9c1.5,4.7,4.3,7,8.3,7s7.1-2.4,9.3-7.3c2.2-4.9,3.2-12.3,3.2-22.2v-63.5h-4.8v-1.6h10.7v1.6h-4v62.5c0,11.8-1.3,20.6-4,26.5-2.7,5.8-7.5,8.7-14.3,8.7s-12.1-2.8-15.7-8.3c-3.6-5.5-5.4-15-5.4-28.5v-60.9h-4v-1.6h23.2v1.6h-4.8v65.8c0,8.8.8,15.5,2.3,20.2Z"/>
        <path d="M447.4,297.7h-3.9v47.9h4.8v1.6h-23.9v-1.6h4.8v-94.7h-4.8v-1.6h22.2c6.4,0,10.9.6,13.6,1.9,2.7,1.3,4.5,2.8,5.6,4.6,2.4,3.7,3.5,8.5,3.5,16.6s-1,13.9-3.1,17.4c-2.1,3.5-5.2,5.6-9.4,6.2v.4c4,1.1,6.7,3.3,8.3,6.9,1.6,3.5,2.4,8.3,2.4,16.6v7.6c0,5,.1,8.3.4,10,.3,1.7.8,2.6,1.7,2.6s1.6-.8,2.1-2.4c.5-1.6,1-4.9,1.4-9.9l1.2.3c-.5,8.1-1.5,13.5-2.8,16.3-1.3,2.8-4,4.1-8.1,4.1s-6.9-1.8-8.6-5.5c-1.7-3.7-2.5-10.6-2.5-20.7v-9.3c0-5.3-.4-9.2-1.1-11.7-.7-2.5-2-3.7-3.9-3.7ZM443.5,250.9v44.1h2.4c2.8,0,4.9-1.7,6.2-5,1.3-3.3,2-8.8,2-16.3v-4.1c0-7.5-.7-12.5-1.9-14.9-1.3-2.4-3.4-3.6-6.2-3.6h-2.4Z"/>
        <path d="M507.1,297.7h-3.9v47.9h4.8v1.6h-23.9v-1.6h4.8v-94.7h-4.8v-1.6h22.2c6.4,0,10.9.6,13.6,1.9,2.7,1.3,4.5,2.8,5.6,4.6,2.4,3.7,3.5,9.6,3.5,17.7s-1,12.8-3.1,16.2c-2.1,3.5-5.2,5.6-9.4,6.2v.4c4,1.1,6.7,3.3,8.3,6.9,1.6,3.5,2.4,8.3,2.4,16.6v7.6c0,5,.1,8.3.4,10,.3,1.7.8,2.6,1.7,2.6s1.6-.8,2.1-2.4c.5-1.6,1-4.9,1.4-9.9l1.2.3c-.5,8.1-1.5,13.5-2.8,16.3-1.3,2.8-4,4.1-8.1,4.1s-6.9-1.8-8.6-5.5c-1.7-3.7-2.5-10.6-2.5-20.7v-9.3c0-5.3-.4-9.2-1.1-11.7-.7-2.5-2-3.7-3.9-3.7ZM503.2,250.9v44.1h2.4c2.8,0,4.9-1.7,6.2-5,1.3-3.3,2-8.8,2-16.3v-4.1c0-7.5-.7-12.5-1.9-14.9-1.3-2.4-3.4-3.6-6.2-3.6h-2.4Z"/>
        <path d="M569.6,295.3l10.4-44.8h-7.4v-1.2h14.5v1.2h-4.9l-11.1,47.8v47.3h4.5v1.6h-23.3v-1.6h4.5v-44.6l-12.5-50.5h-3.5v-1.2h23.5v1.2h-4.8l10,44.8Z"/>
        <path d="M355.3,315.2c-4.5,20.4-9.5,30.6-14.9,30.6s-6.9-3.8-8.9-11.5c-2-7.7-3-17.7-3-31.3v-11.3c0-28.5,3.8-42.2,11.4-42.2s5.7,2.6,8,7.7c2.3,5.1,4.6,12.5,6.8,22.1h1.3l-.6-31h-.8c-.3,1.1-.6,1.8-.8,2.2s-.6.6-1.1.6-2.2-.7-5-2.2c-2.9-1.5-5.8-2.2-8.8-2.2-7.7,0-13.9,4.6-18.5,13.7-3.7,7.4-5.9,16.8-6.6,29.3,2.9.2,5.2,4.2,5.2,9.1s-2.3,8.9-5.2,9.1c.7,12.4,2.8,21.4,6.3,28.2,4.4,8.4,10.6,12.6,18.6,12.6s6.3-.7,9.4-2.2c3.1-1.5,4.9-2.2,5.3-2.2s.8.2,1.1.6c.2.4.5,1.2.8,2.2h.8l.5-31.9h-1.3Z"/>
      </g>
    </g>
  </g>
</svg>
