<?xml version="1.0" encoding="UTF-8"?>
<svg xmlns="http://www.w3.org/2000/svg" version="1.1" viewBox="0 0 512 512">
  <defs>
    <style>
      .cls-1 {
        fill: #929292;
      }
    </style>
  </defs>
  <!-- Generator: Adobe Illustrator 28.7.7, SVG Export Plug-In . SVG Version: 1.2.0 Build 194)  -->
  <g>
    <g id="_レイヤー_1" data-name="レイヤー_1">
      <rect class="cls-1" y="0" width="512" height="512" rx="80" ry="80"/>
      <path d="M379.8,200.2c-3.8-17.2-10.9-33.4-21.3-48.2-13-18.5-30.3-31.4-51.4-38.3-12.3-4-27.7-6.2-46-6.5h-128.8v297.6h128.8c45.1,0,79-18.9,100.6-56.1,15.7-27.2,23.7-60.8,23.7-99.8s-1.9-31.8-5.6-48.7ZM315.1,253.1c0,20.6-3,38.6-8.9,53.3-10.6,26.4-28.7,39.3-55.3,39.3h-51.1v-179.3h51.1c25.6,0,42.8,7.2,51.1,21.3,8.7,15,13.1,37.1,13.1,65.5Z"/>
    </g>
  </g>
</svg>